<?xml version="1.0" encoding="utf-8"?>
<!-- Generator: Adobe Illustrator 27.5.0, SVG Export Plug-In . SVG Version: 6.00 Build 0)  -->
<svg version="1.1" id="Layer_1" xmlns="http://www.w3.org/2000/svg" xmlns:xlink="http://www.w3.org/1999/xlink" x="0px" y="0px"
	 viewBox="0 0 3000 2000" style="enable-background:new 0 0 3000 2000;" xml:space="preserve">
<g>
	<rect style="fill:#FFFFFF;" width="3000" height="2000"/>
	<g>
		<path style="fill:#EBF3FA;" d="M445.489,1720.346c0,0-217.213-277.744-154.874-674.264
			c56.896-361.89,513.396-588.632,769.737-418.214c124.006,82.441,234.146-210.567,645.705-331.867
			c304.347-89.703,904.331,61.907,790.032,677.975c-86.901,468.391,303.933,228.929,209.793,746.37H445.489z"/>
		<g>
			<g>
				<g>
					<g>
						<path style="fill:#233862;" d="M1239.322,1610.612c0,0,2.529-19.694,8.384-31.405c5.856-11.711,43.117-4.258,43.117-4.258
							s7.452,6.387,9.049,36.196L1239.322,1610.612z"/>
						<path style="fill:#233862;" d="M1112.375,1610.346c8.755-5.344,3.773-45.21,3.773-45.21s-40.796-32.637-46.406-7.649
							c-5.61,24.988-38.757,36.207-57.625,39.268c-13.025,2.111-17.058,9.325-18.307,13.592H1112.375z"/>
						<path style="fill:#2B478B;" d="M1196.877,1320.389c-1.661,9.15-2.715,16.655-2.994,22.038
							c-3.793,73.975-62.271,243.117-72.73,247.062c-16.184,6.108-41.67-6.875-55.004-11.123c-5.525-1.764-9.254-7.337-8.024-12.99
							c28.959-133.133,39.603-324.838,43.476-438.336c1.956-57.169,11.769-96.661,11.769-96.661s142.625-38.053,143.472,10.085
							C1257.591,1083.06,1209.597,1250.118,1196.877,1320.389z"/>
						<path style="fill:#233862;" d="M1196.877,1320.389l-95.277-193.35c1.956-57.169,11.769-96.661,11.769-96.661
							s142.625-38.053,143.472,10.085C1257.591,1083.06,1209.597,1250.118,1196.877,1320.389z"/>
						<path style="fill:#2B478B;" d="M1165.145,1040.631l75.397,546.462c0,0,33.111,7.984,58.863,1.597
							c0,0,22.075-290.633,20.235-360.896c-1.839-70.263,15.842-188.012-4.035-200.998
							C1295.727,1013.81,1165.145,1040.631,1165.145,1040.631z"/>
						<g>
							<path style="fill:#FFB27D;" d="M919.649,768.469c4.536,12.197,3.354,14.3,11.606,17.819c9.353,3.99,13.255,9.63,13.255,9.63
								l7.555-4.386l9.021-5.245c0,0-0.213-1-0.653-2.634c-0.436-1.624-1.112-3.888-2.027-6.395c0,0-2.771-3.557-1.073-8.026
								c1.696-4.466,1.356-11.366-1.538-15.578c-2.896-4.202-10.19-11.648-11.933-11.338c-4.218,0.725,5.327,11.736,3.521,14.378
								c-1.632,2.389-2.425,1.883-2.802,1.701c-0.026-0.016-0.046-0.024-0.072-0.04c-11.837-5.205-11.408-21.44-17.765-17.655
								C924.373,742.121,917.716,763.273,919.649,768.469z"/>
							<path style="fill:#D86713;" d="M1126.276,734.673c-23.088,38.454-56.822,95.666-73.402,110.333l-94.519-70.471
								c0,0-13.715,4.207-19.723,17.975c0,0,57.399,116.94,113.912,121.898c56.513,4.958,135.831-140.167,135.831-140.167
								l-19.039-37.408C1160.88,720.218,1135.874,718.688,1126.276,734.673z"/>
						</g>
						<path style="fill:#D86713;" d="M1325.948,1004.249c-0.046-0.615-0.092-1.23-0.138-1.844c-0.145-1.828-0.285-3.656-0.423-5.469
							c-0.039-0.529-0.077-1.06-0.115-1.589c-0.338-4.631-0.645-9.209-0.93-13.725c-0.031-0.506-0.061-1.006-0.092-1.514
							c-0.115-1.873-0.223-3.732-0.331-5.591c-0.022-0.399-0.045-0.806-0.069-1.213c-0.123-2.265-0.246-4.515-0.361-6.75
							c-0.007-0.046-0.007-0.092-0.007-0.138c-0.115-2.136-0.215-4.247-0.314-6.344c-0.023-0.491-0.046-0.983-0.07-1.467
							c-0.084-1.805-0.169-3.602-0.245-5.383c-0.016-0.37-0.031-0.738-0.046-1.099c-0.1-2.135-0.184-4.255-0.269-6.352
							c-0.015-0.291-0.022-0.568-0.039-0.86c-0.068-1.774-0.138-3.539-0.207-5.291c-0.023-0.606-0.046-1.214-0.07-1.821
							c-0.053-1.498-0.107-2.987-0.168-4.469c-0.016-0.568-0.039-1.138-0.062-1.698c-0.062-1.804-0.123-3.602-0.184-5.383
							c-0.055-1.368-0.101-2.727-0.146-4.078c-0.008-0.284-0.016-0.577-0.031-0.867c-0.238-7.082-0.469-13.963-0.714-20.676
							c-0.008-0.1-0.008-0.2-0.015-0.3c-0.146-3.932-0.292-7.811-0.454-11.621c-0.007-0.229-0.021-0.46-0.031-0.69
							c-0.061-1.567-0.131-3.119-0.207-4.662c-0.016-0.408-0.03-0.807-0.054-1.214c-0.076-1.644-0.153-3.279-0.238-4.9
							c-0.007-0.138-0.015-0.268-0.023-0.407c-0.008-0.162-0.017-0.319-0.026-0.481c0.623-0.715,1.317-1.511,1.588-1.837
							c32.633-39.369,47.053-119.973,33.882-138.79c-21.504-30.721-90.063-42.369-90.063-42.369
							c0,10.248-20.052,22.83-38.464,24.263c-0.032,0.003-1.112-15.502-1.145-15.5c-16.751,1.53-36.614,7.12-36.614,7.12
							l-13.81-20.283c0,0-0.207-2.56-28.132,6.687l7.033,19.674c-19.91,6.945-36.27,6.651-35.785,80.521
							c0.26,39.552-0.537,72.892-1.267,100.956c-0.807,31.188-1.929,55.865-3.088,75.334c-3.426,57.471-7.228,69.558-4.738,69.513
							c0,0,21.865,19.906,79.62,19.538c36.312-0.223,65.866-4.262,87.831-8.825c29.545-6.12,45.335-13.194,45.335-13.194
							c6.336-0.1,5.007-21.896,4.485-27.887C1326.333,1008.917,1326.141,1006.575,1325.948,1004.249z"/>
						<path style="fill:#FFB27D;" d="M1192.729,686.623l-0.168,22.218c-0.023,3.036,1.984,5.704,4.905,6.532
							c3.651,1.035,9.926,2.359,20.634,3.703c27.24,3.418,47.916-8.634,47.176-25.718c-2.456-13.228-5.151-22.312-5.333-33.257
							c-0.067-4.068,0.211-8.384,0.969-13.257l-52.827-1.055l-15.559,2.542L1192.729,686.623z"/>
						<path style="fill:#E2915A;" d="M1192.527,648.331l0.202,38.293c5.611,2.61,11.942,4.203,19.041,4.203
							c24.279,0,39.972-17.805,48.173-30.726c-0.067-4.068,0.211-8.384,0.969-13.257l-52.827-1.055L1192.527,648.331z"/>
						<path style="fill:#FFB27D;" d="M1264.961,638.343c-6.13,32.986-48.692,31.903-67.086,29.829
							c-5.177-0.576-8.433-1.235-8.433-1.235c-5.837-1.56-9.093-10.753-10.607-22.795c-3.002-23.831,0.792-58.814,4.816-67.762
							c6.06-13.463,17.473-28.025,60.336-17.519C1286.856,569.375,1272.825,596.079,1264.961,638.343z"/>
						<path style="fill:#D86713;" d="M1320.064,876.171c-0.001,0.002-0.002,0.003-0.003,0.004
							C1320.066,876.237,1320.066,876.221,1320.064,876.171z"/>
						<g>
							<g>
								<path style="fill:#233862;" d="M1123.6,711.856L1123.6,711.856c-1.199-0.898-1.443-2.599-0.545-3.798l6.396-8.542
									l4.343,3.252l-6.396,8.542C1126.5,712.51,1124.799,712.754,1123.6,711.856z"/>
								<path style="fill:#2B478B;" d="M1127.756,706.758L1127.756,706.758c-2.506-1.877-3.083-5.398-1.306-7.976l36.485-52.937
									l13.371,10.012l-40.528,49.909C1133.804,708.197,1130.262,708.635,1127.756,706.758z"/>
								<path style="fill:#233862;" d="M1188.027,652.124c-5.097,6.807-14.746,8.192-21.553,3.096
									c-6.807-5.097-8.192-14.747-3.096-21.553s14.747-8.192,21.553-3.096C1191.738,635.668,1193.125,645.317,1188.027,652.124z"
									/>
							</g>
							<path style="fill:#FFB27D;" d="M1173.778,690.645c0,0-6.131-49.64-22.379-40.557c-16.248,9.082-15.286,23.639-14.883,28.953
								c0.402,5.313,14.952,20.537,14.952,20.537L1173.778,690.645z"/>
						</g>
						<path style="fill:#233862;" d="M1170.496,544.981c0,0,18.867-1.451,41.121-11.127c18.062-7.852,40.849,0.795,48.246,4.692
							c-0.199-1.192-0.675-2.819-1.804-4.451c0,0,3.321,2.355,3.811,5.647c0.341,0.252,0.495,0.426,0.406,0.484
							c0,0,3.765-0.688,6.184,0.4c0,0-1.693-0.242-2.298,0.847c-0.064,0.115-0.159,0.212-0.271,0.3
							c28.175,13.613,30.777,58.141,21.711,68.442c-10.908,12.397-23.989,40.311-23.989,40.311s-4.769-6.594-2.786-17.503
							c1.983-10.907-7.438-10.907-19.337-15.866s-1.983-18.841-12.396-27.271c-10.413-8.429-48.591-3.472-48.095-9.917
							C1166.826,574.809,1170.496,546.433,1170.496,544.981z"/>
						<g>
							<path style="fill:#BA550F;" d="M1259.878,901.972c-7.788-1.161-15.345-5.615-22.549-12.334
								c-39.868-37.133-74.458-146.343-74.458-146.343c2.097,52.716,19.921,151.635,81.823,179.575l0.008,0.009
								c29.481-4.718,54.618-21.974,75.167-46.524C1308.18,889.523,1259.878,901.972,1259.878,901.972z"/>
						</g>
						<path style="fill:#BA550F;" d="M1294.139,790.245c0,0-21.913,53.756-40.457,19.05
							C1253.682,809.295,1263.951,813.369,1294.139,790.245z"/>
						<path style="fill:#D86713;" d="M1147.113,695.644c0,0,13.02-7.641,27.361-8.154l10.67,16.007l-34.567,1.837L1147.113,695.644z
							"/>
						<path style="fill:#BA550F;" d="M1117.625,875.245l1.453-105.817c0,0-12.139,140.225-66.533,144.982
							C1052.545,914.409,1076.292,920.531,1117.625,875.245z"/>
					</g>
					<path style="fill:#9B5129;" d="M980.671,703.919l0.182-0.564c0.328-1.012-0.228-2.098-1.239-2.425
						c-1.012-0.328-2.098,0.228-2.425,1.239l-1.398,4.322l-1.033-0.335l0.228-0.705c0.377-1.167-0.263-2.42-1.43-2.798
						l-34.672-11.218c-1.168-0.377-2.421,0.263-2.798,1.43l-0.228,0.705l-0.846-0.273l1.398-4.322
						c0.327-1.012-0.228-2.098-1.239-2.425c-1.012-0.328-2.098,0.228-2.425,1.239l-0.183,0.564c-1.375-0.444-2.85,0.31-3.295,1.685
						l-5.685,17.571c-0.445,1.375,0.31,2.851,1.685,3.296l-0.183,0.564c-0.327,1.012,0.227,2.098,1.24,2.425
						c1.012,0.327,2.098-0.228,2.425-1.239l1.398-4.322l0.846,0.274l-0.228,0.705c-0.378,1.167,0.263,2.42,1.43,2.798l13.271,4.294
						l-7.227,22.336c-2.411,0.655-4.455,2.472-5.281,5.026l-15.806,48.854c-1.301,4.02,0.904,8.333,4.924,9.634
						c4.02,1.301,8.333-0.904,9.633-4.924l15.806-48.854c0.827-2.554,0.234-5.224-1.336-7.167l7.227-22.336l13.46,4.354
						c1.167,0.377,2.42-0.263,2.798-1.43l0.228-0.705l1.034,0.334l-1.398,4.322c-0.328,1.012,0.227,2.098,1.239,2.425
						c1.012,0.327,2.098-0.228,2.425-1.24l0.183-0.564c1.375,0.445,2.851-0.309,3.295-1.684l5.685-17.571
						C982.8,705.839,982.046,704.363,980.671,703.919z"/>
					<path style="fill:#FFB27D;" d="M944.325,758.271c0,0-4.057-13.84-1.195-15.809c2.861-1.969,14.255,10.481,14.831,16.587
						c0.575,6.106-9.157,7.866-9.157,7.866L944.325,758.271z"/>
				</g>
				<rect x="875.337" y="1016.1" style="fill:#E5BD9E;" width="21.128" height="595.046"/>
				<path style="fill:#B27F5D;" d="M927.619,1602.251h-84.61l0,0c0-5.564,4.511-10.075,10.075-10.075h64.46
					C923.108,1592.176,927.619,1596.687,927.619,1602.251L927.619,1602.251z"/>
				<path style="fill:#916140;" d="M976.099,1611.146H794.53c-3.343,0-6.052-2.71-6.052-6.053l0,0c0-3.343,2.71-6.053,6.052-6.053
					h181.569c3.343,0,6.053,2.71,6.053,6.053l0,0C982.151,1608.436,979.441,1611.146,976.099,1611.146z"/>
				<g>
					<polygon style="fill:#C6916D;" points="1057.059,1062.454 806.269,1062.454 714.743,968.343 965.534,968.343 					"/>
					<polygon style="fill:#E5BD9E;" points="965.017,957.953 714.743,957.953 714.743,968.343 969.67,968.343 					"/>
					<polygon style="fill:#9B5129;" points="1057.059,1052.064 965.017,957.953 965.017,968.343 1057.059,1062.454 					"/>
				</g>
				<path style="fill:#9B5129;" d="M896.465,1162.181V1016.1h-21.128v80.35C875.337,1096.449,896.465,1121.686,896.465,1162.181z"/>
			</g>
			<g>
				<g>
					<g>
						<path style="fill:#B27D59;" d="M1995.376,1611.146l-1.745-0.005c-2.877-0.008-5.004-2.684-4.363-5.487l216.155-947.097h30.538
							l-236.525,949.426C1998.971,1609.845,1997.295,1611.15,1995.376,1611.146z"/>
					</g>
					<g>
						<path style="fill:#B27D59;" d="M1608.973,1611.135l-1.746-0.005c-2.877-0.008-5.004-2.683-4.363-5.487l216.156-947.096h30.537
							l-236.525,949.426C1612.567,1609.834,1610.891,1611.14,1608.973,1611.135z"/>
					</g>
					<g>
						<g>
							<path style="fill:#916140;" d="M1962.701,1606.861l-140.243-948.305h34.717l114.527,948.132
								c0.286,2.28-1.646,4.436-3.98,4.436h-0.032C1965.126,1611.124,1963.059,1609.359,1962.701,1606.861z"/>
						</g>
						<path style="fill:#916140;" d="M1822.458,658.557l-9.543,42.979l144.094,902.988c0.617,3.881,3.856,6.601,7.855,6.601h2.857
							L1822.458,658.557z"/>
						<g>
							<path style="fill:#916140;" d="M2345.777,1606.861l-136.063-948.305h30.536l114.527,948.132
								c0.289,2.28-1.646,4.436-3.979,4.436h-0.033C2348.201,1611.124,2346.136,1609.359,2345.777,1606.861z"/>
						</g>
						<path style="fill:#916140;" d="M2209.714,658.557l-13.722,42.979l144.091,902.988c0.618,3.881,3.858,6.601,7.858,6.601h2.857
							L2209.714,658.557z"/>
						<polygon style="fill:#916140;" points="2253.764,1018.041 1869.576,1018.041 1871.63,995.009 2255.818,995.009 						"/>
					</g>
					<polygon style="fill:#B27F5D;" points="1698.889,1224.548 1680.225,1224.548 1809.4,658.557 1822.458,658.557 					"/>
					<polygon style="fill:#E5BD9E;" points="2105.407,1224.548 1668.593,1224.548 1799.356,658.557 2240.348,658.557 					"/>
					<path style="fill:#B27F5D;" d="M2108.015,1224.548h-461.686c-2.511,0-4.544-2.034-4.544-4.543v-12.025
						c0-2.509,2.033-4.543,4.544-4.543h461.686c2.509,0,4.544,2.034,4.544,4.543v12.025
						C2112.559,1222.514,2110.523,1224.548,2108.015,1224.548z"/>
					<path style="fill:#C6916D;" d="M2062.233,1224.548h-451.638c-2.482,0-4.493-2.012-4.493-4.495v-12.121
						c0-2.483,2.011-4.495,4.493-4.495h451.638c2.482,0,4.495,2.012,4.495,4.495v12.121
						C2066.729,1222.536,2064.716,1224.548,2062.233,1224.548z"/>
					<path style="fill:#E5BD9E;" d="M2146.071,708.572c0-1.503-1.22-2.723-2.724-2.723c-1.506,0-2.724,1.22-2.724,2.723
						c0,1.504,1.218,2.724,2.724,2.724C2144.852,711.295,2146.071,710.076,2146.071,708.572z"/>
					<path style="fill:#E5BD9E;" d="M1848.451,708.572c0-1.503-1.219-2.723-2.722-2.723c-1.506,0-2.724,1.22-2.724,2.723
						c0,1.504,1.218,2.724,2.724,2.724C1847.232,711.295,1848.451,710.076,1848.451,708.572z"/>
				</g>
				<g>
					<g>
						
							<rect x="1419.6" y="600.102" transform="matrix(-1 -1.224647e-16 1.224647e-16 -1 3811.7886 1799.9)" style="fill:#FFF6EE;" width="972.588" height="599.696"/>
						<g>
							<path style="fill:#B27D59;" d="M1407.162,1203.437h985.733V590.597h-985.733V1203.437z M2379.75,1190.29h-959.443V603.742
								h959.443V1190.29z"/>
						</g>
					</g>
					<g>
						<path style="fill:#EBF3FA;" d="M1487.167,1055.783c0.117,0.513,0.238,1.033,0.365,1.553l205.565-0.062l174.563-0.049
							l24.04-0.006l407.121-0.121c0,0,0.182-0.451,0.51-1.315c2.605-6.894,14.393-40.055,16.004-80.099
							c0.371-9.386,0.189-19.154-0.803-29.05c-0.251-2.523-0.555-5.051-0.919-7.585c-0.665-4.679-1.525-9.372-2.606-14.054
							c-0.007-0.025-0.011-0.042-0.018-0.066c-1.022-4.431-2.241-8.849-3.681-13.236c-0.451-1.377-0.927-2.747-1.422-4.118
							c-0.544-1.505-1.112-3.002-1.712-4.493c-0.33-0.83-0.671-1.66-1.019-2.483c-2.845-6.725-6.263-13.321-10.344-19.712
							c-4.775-7.482-10.453-14.678-17.167-21.455c-70.094-70.74-155.391-45.099-213.443-28.124
							c-20.17,5.901-37.048,10.756-48.858,10.157c-14.214-0.72-24.261-10.026-35.454-22.842
							c-8.711-9.979-18.115-22.081-30.71-33.929c-0.021-0.021-0.038-0.031-0.044-0.038c-2.111-1.983-4.312-3.959-6.611-5.916
							c-23.18-19.712-56.647-37.531-112.396-41.982c-40.964-3.268-83.553-0.644-118.215,12.471
							c-29.566,11.183-53.366,30-65.479,59.302c-2.014,4.872-3.704,10.03-5.04,15.494c-5.564,22.67-5.097,50.553,3.351,84.585
							c2.469,9.957,3.077,18.349,2.155,25.452c-0.902,6.951-3.271,12.67-6.798,17.429c-1.763,2.379-3.814,4.518-6.118,6.446
							c-24.15,20.222-75.915,17.608-111.211,30.2C1494.8,997.401,1477.746,1014.899,1487.167,1055.783z"/>
						<path style="fill:#F8FBFF;" d="M1880.117,838.494l434.414,108.14c-0.718-7.179-1.861-14.423-3.528-21.64
							c-0.007-0.022-0.01-0.041-0.016-0.064c-1.022-4.431-2.243-8.849-3.682-13.236L1880.117,838.494z"/>
						<path style="fill:#F8FBFF;" d="M1727.434,793.872c0-6.271-5.084-11.355-11.354-11.355c-6.271,0-11.356,5.084-11.356,11.355
							c0,6.272,5.085,11.356,11.356,11.356C1722.35,805.227,1727.434,800.143,1727.434,793.872z"/>
						<path style="fill:#F8FBFF;" d="M1638.102,951.493l534.873,62.398c5.227-17.003,7.912-35.462,6.563-55.133l-540.145-134.731
							c-5.564,22.67-5.096,50.553,3.35,84.585C1647.628,928.31,1645.235,941.873,1638.102,951.493z"/>
						<path style="fill:#C1E0E4;" d="M1891.695,1057.225l407.123-0.127c0,0,27.17-67.181,12.185-132.104
							c-0.007-0.022-0.01-0.041-0.016-0.064c-25.156-1.172-66.486,1.788-109.995,26.528
							c-68.709,39.075-181.516,10.484-214.164,32.401c-32.648,21.92-40.146,44.613-64.425,48.515
							c-21.183,3.401-29.05,20.531-30.705,24.845C1891.695,1057.222,1891.695,1057.222,1891.695,1057.225z"/>
						<path style="fill:#A8D29F;" d="M1917.257,1049.546c0,0,57.125-19.175,90.167-9.847c33.044,9.329,140.431-7.385,155.904,0.625
							v16.786h-246.071V1049.546z"/>
						<path style="fill:#A8D29F;" d="M2156.889,1055.783h142.441c2.605-6.894,14.393-40.055,16.004-80.099l-0.004-0.035
							c0,0-45.336-6.428-66.512,19.272c-21.176,25.703-49.041,19.98-68.937,18.969
							C2159.988,1012.878,2141.911,1034.649,2156.889,1055.783z"/>
						<path style="fill:#FFC6C5;" d="M1485.751,1049c0.379,2.293,0.851,4.669,1.416,7.128h435.459
							c-6.198-48.315-77.128-26.75-99.163-48.786c-22.037-22.037-86.08,0-102.607-33.744c-16.527-33.743-75.956-39.19-75.956-39.19
							c-0.902,6.952-3.271,12.671-6.798,17.429c-1.763,2.379-3.814,4.518-6.118,6.446c-24.15,20.222-75.915,17.609-111.211,30.2
							c-13.208,4.71-24.106,11.548-30.39,22.508l-0.007,0.01C1485.046,1020.298,1483.035,1032.56,1485.751,1049z"/>
						<path style="fill:#365DA4;" d="M2235.391,868.271c0,0,51.645,102.336,12.395,187.512h39.767c0,0,4.648-93.001-39.25-183.38
							L2235.391,868.271z"/>
						<path style="fill:#365DA4;" d="M2253.399,918.116c0,0-29.841,1.184-49.352-25.553l-2.525,1.038
							c0,0,17.587,29.278,55.436,31.964L2253.399,918.116z"/>
						<g>
							<path style="fill:#365DA4;" d="M2224.764,912.482c1.032-18.225-7.069-32.038-7.135-32.164l-1.225,0.629
								c0.063,0.122,6.271,12.459,5.262,30.29L2224.764,912.482z"/>
						</g>
						<path style="fill:#365DA4;" d="M1800.821,810.475c0,0-29.188-6.312-41.399-37.076l-2.704,0.375
							c0,0,9.712,32.743,45.688,44.804L1800.821,810.475z"/>
						<g>
							<path style="fill:#365DA4;" d="M1774.504,797.863c5.553-17.389,1.161-32.789,1.13-32.927l-1.344,0.303
								c0.03,0.134,2.958,13.632-2.475,30.645L1774.504,797.863z"/>
						</g>
						<g>
							<path style="fill:#365DA4;" d="M2272.28,949.84c11.081-11.081,15.619-31.55,14.43-50.614
								c-0.892-14.306-4.993-25.171-5.167-25.627l-2.572,0.983c0.041,0.108,4.141,10.99,4.995,24.891
								c0.499,8.116-0.189,15.66-2.047,22.424c-2.306,8.399-6.437,15.62-12.277,21.46L2272.28,949.84z"/>
						</g>
						<path style="fill:#E57970;" d="M2062.194,831.315c0,0,18.259,31.274,49.765,31.791c31.502,0.516,26.854,31.502,54.743,38.216
							c27.89,6.714,46.479-7.231,54.743-21.689c8.264-14.461,63.716,12.32,71.366,1.253c-4.775-7.482-10.453-14.678-17.167-21.455
							c-70.094-70.74-155.391-45.099-213.443-28.124L2062.194,831.315z"/>
						<g>
							<path style="fill:#365DA4;" d="M2285.75,914.547c7.32-2.258,13.728-6.366,18.424-11.465c-0.33-0.83-0.671-1.66-1.019-2.483
								c-4.208,4.297-10.068,7.62-17.062,9.775C2285.285,910.623,2285.536,914.613,2285.75,914.547z"/>
						</g>
						<path style="fill:#E57970;" d="M2296.324,933.082c2.647,5.134,11.938,8.794,17.288,5.967
							c-0.665-4.679-1.525-9.372-2.606-14.054c-0.007-0.025-0.011-0.042-0.018-0.066c-1.022-4.431-2.241-8.849-3.681-13.236
							c-0.451-1.377-0.927-2.747-1.422-4.118c0,0-4.28,2.324-4.741,8.178C2300.687,921.606,2292.423,925.507,2296.324,933.082z"/>
						<path style="fill:#E57970;" d="M2098.916,886.026c0,6.973,6.371,12.625,14.232,12.625c7.859,0,18.822-5.423,18.822-12.396
							c0-6.973-15.095-15.15-22.954-15.15C2101.156,871.106,2098.916,879.054,2098.916,886.026z"/>
						<g>
							<path style="fill:#365DA4;" d="M1766.353,1057.363l46.571-0.054c-5.243-37.164-7.599-76.678-7.199-114.325
								c0.319-30.149,2.46-60.185,6.363-89.273c6.652-49.586,16.251-79.609,16.347-79.906l-20.962-6.798
								C1807.06,768.279,1759.639,935.645,1766.353,1057.363z"/>
						</g>
						<g>
							<path style="fill:#365DA4;" d="M1810.469,866.699c63.741-9.76,98.456-71.354,98.81-71.946l-2.958-1.764
								c-0.084,0.141-8.622,14.304-24.493,28.59c-9.293,8.365-19.247,15.137-29.587,20.129
								c-12.889,6.222-27.967,9.874-41.771,10.475V866.699z"/>
						</g>
						<g>
							<path style="fill:#365DA4;" d="M1871.236,831.481l5.477-3.262l2.012-2.247c-0.141-0.127-16.4-12.847-13.441-31.915
								l-2.383-0.37C1858.468,804.653,1871.082,831.342,1871.236,831.481z"/>
						</g>
						<path style="fill:#FFA49F;" d="M1709.913,749.231c6.276,23.882,52.949,34.648,84.626,29.511
							c31.678-5.141,51.647,24.419,88.834,26.485c37.187,2.066,57.15-26.485,57.15-26.485
							c-23.18-19.712-56.647-37.531-112.396-41.982C1787.164,733.492,1744.575,736.115,1709.913,749.231z"/>
						<path style="fill:#82B378;" d="M1467.428,1056.128c0,0,22.207-17.6,67.655-10.886c45.448,6.714,111.037-12.831,136.343,10.886
							H1467.428z"/>
						<path style="fill:#82B378;" d="M1613.584,1046.962c0,0,37.701-51.645,57.842-39.25
							C1691.567,1020.106,1613.584,1046.962,1613.584,1046.962z"/>
						<path style="fill:#82B378;" d="M1640.612,1044.357c0,0,33.76-14.636,41.679-8.782
							C1690.211,1041.429,1640.612,1044.357,1640.612,1044.357z"/>
						<path style="fill:#82B378;" d="M1485.751,1049.922l116.569-4.42c-5.347,0.175-45.329,0.919-63.623-14.942
							c-19.626-17.013-48.314-19.913-48.314-19.913l-0.007,0.011C1485.046,1020.264,1483.035,1032.933,1485.751,1049.922z"/>
						<path style="fill:#82B378;" d="M2313.541,1056.171c0,0-15.279-10.235-44.303-6.354c-29.022,3.883-112.477,6.799-153.106,2.67
							s-124.506,3.653-124.506,3.653L2313.541,1056.171z"/>
						<path style="fill:#2E3552;" d="M1444.019,1058.549h912.018c0.569,0,1.035-0.467,1.035-1.036v-0.354
							c0-0.569-0.466-1.035-1.035-1.035h-912.018c-0.569,0-1.036,0.466-1.036,1.035v0.354
							C1442.983,1058.082,1443.45,1058.549,1444.019,1058.549z"/>
						<path style="fill:#82B378;" d="M2284.381,1053.106c0,0-7.646-32.879-11.567-25.82
							C2268.892,1034.345,2284.381,1053.106,2284.381,1053.106z"/>
						<path style="fill:#82B378;" d="M2280.211,1052.536c0,0-9.629-14.779-11.382-12.859
							C2267.075,1041.596,2280.211,1052.536,2280.211,1052.536z"/>
						<path style="fill:#82B378;" d="M2289.071,1051.058c0.086-0.172,4.82-15.666,8.034-12.683
							C2300.319,1041.359,2289.071,1051.058,2289.071,1051.058z"/>
						<path style="fill:#82B378;" d="M2083.422,1053.652c0-0.518,11.529-21.269,15.666-18.077S2083.422,1053.652,2083.422,1053.652z
							"/>
						<path style="fill:#82B378;" d="M2082.217,1053.652c-0.172-1.033-2.238-18.916,2.238-18.411
							c4.476,0.507-2.41,17.378-2.41,17.378L2082.217,1053.652z"/>
						<polygon style="fill:#B27D59;" points="2154.307,1030.421 2239.977,1030.421 2243.936,1010.285 2158.422,1010.285 						"/>
						<polygon style="fill:#E0B594;" points="2152.844,1030.421 2238.513,1030.421 2242.473,1010.285 2156.957,1010.285 						"/>
						<path style="fill:#B27D59;" d="M2214.691,1032.886h23.411c1.036,0,1.875-0.839,1.875-1.875v-0.589h-25.286V1032.886z"/>
						
							<rect x="2137.073" y="1030.422" transform="matrix(-1 -1.224647e-16 1.224647e-16 -1 4351.9531 2063.3076)" style="fill:#D3A07D;" width="77.807" height="2.464"/>
						<g>
							<path style="fill:#2B478B;" d="M1889.982,873.741h1.721l-0.015-0.135l-0.52-4.588c-0.018-0.148-0.142-0.26-0.291-0.26
								c-0.019,0-0.036,0.001-0.055,0.004c-0.097,0.011-0.186,0.053-0.255,0.116c-0.081,0.074-0.137,0.178-0.148,0.296
								L1889.982,873.741z"/>
							<path style="fill:#3F65B2;" d="M1891.537,872.699l0.062,0.002l-0.43-3.684c-0.018-0.148-0.142-0.26-0.291-0.26
								c-0.019,0-0.036,0.001-0.055,0.004c-0.017,0.014-0.031,0.028-0.045,0.042c-0.076,0.082-0.121,0.189-0.123,0.308l-0.024,2.648
								C1890.626,872.268,1891.029,872.686,1891.537,872.699z"/>
							<rect x="1888.887" y="894.16" style="fill:#2B478B;" width="3.317" height="146.485"/>
							<rect x="1890.672" y="894.16" style="fill:#4365AA;" width="1.532" height="146.485"/>
							<rect x="1885.263" y="1017.271" style="fill:#2B478B;" width="10.566" height="38.758"/>
							<rect x="1889.531" y="1017.271" style="fill:#4365AA;" width="6.298" height="38.758"/>
							<path style="fill:#2B478B;" d="M1884.771,875.952c0,1.81,2.718,3.277,6.071,3.277c0.257,0,0.508-0.009,0.756-0.026
								c2.996-0.2,5.316-1.58,5.316-3.251c0-1.672-2.32-3.05-5.316-3.251c-0.248-0.018-0.499-0.025-0.756-0.025
								C1887.489,872.676,1884.771,874.143,1884.771,875.952z"/>
							<path style="fill:#3F65B2;" d="M1887.914,875.952c0,1.458,1.519,2.711,3.685,3.251c2.996-0.2,5.316-1.58,5.316-3.251
								c0-1.672-2.32-3.05-5.316-3.251C1889.433,873.24,1887.914,874.493,1887.914,875.952z"/>
							<polygon style="fill:#3F65B2;" points="1885.275,897.049 1895.841,897.049 1899.566,879.112 1882.12,879.112 							"/>
							<rect x="1881.178" y="877.761" style="fill:#2B478B;" width="19.33" height="1.72"/>
							<rect x="1888.356" y="877.761" style="fill:#3F65B2;" width="12.151" height="1.72"/>
							<path style="fill:#365DA4;" d="M1894.098,1017.271h-6.752l0.988-2.998c0.088-0.266,0.336-0.444,0.615-0.444h3.164
								c0.343,0,0.652,0.207,0.783,0.524L1894.098,1017.271z"/>
							<polygon style="fill:#F9DDBF;" points="1898.317,879.986 1883.417,879.986 1886.327,896.109 1894.884,896.109 							"/>
							<path style="fill:#C7DCF9;" d="M1896.514,876.144c0,0-1.136-2.479-3.377-2.404c0,0,1.427,1.269,1.296,2.404
								C1894.302,877.279,1896.514,876.144,1896.514,876.144z"/>
							<polygon style="fill:#2B478B;" points="1882.412,877.761 1899.273,877.761 1897.893,875.794 1883.724,875.794 							"/>
							<polygon style="fill:#3F65B2;" points="1886.565,877.761 1899.273,877.761 1897.893,875.794 1887.876,875.794 							"/>
							<polygon style="fill:#FFEBD9;" points="1897.328,880.549 1893.914,880.549 1892.919,895.604 1893.914,895.604 							"/>
						</g>
						<g>
							<path style="fill:#2B478B;" d="M2121.177,937.335h1.12l-0.01-0.088l-0.338-2.987c-0.012-0.097-0.092-0.169-0.189-0.169
								c-0.012,0-0.023,0.001-0.035,0.003c-0.063,0.007-0.121,0.035-0.167,0.076c-0.053,0.048-0.089,0.116-0.096,0.192
								L2121.177,937.335z"/>
							<path style="fill:#3F65B2;" d="M2122.189,936.657l0.04,0.001l-0.28-2.398c-0.012-0.097-0.092-0.169-0.189-0.169
								c-0.012,0-0.023,0.001-0.035,0.003c-0.012,0.009-0.021,0.018-0.03,0.028c-0.049,0.054-0.079,0.123-0.079,0.2l-0.017,1.725
								C2121.596,936.376,2121.858,936.648,2122.189,936.657z"/>
							<rect x="2120.463" y="950.63" style="fill:#2B478B;" width="2.16" height="95.382"/>
							<rect x="2121.625" y="950.63" style="fill:#4365AA;" width="0.998" height="95.382"/>
							<rect x="2118.104" y="1030.791" style="fill:#2B478B;" width="6.88" height="25.237"/>
							<rect x="2120.883" y="1030.791" style="fill:#4365AA;" width="4.101" height="25.237"/>
							<path style="fill:#2B478B;" d="M2117.783,938.774c0,1.179,1.77,2.133,3.953,2.133c0.168,0,0.331-0.005,0.493-0.017
								c1.95-0.13,3.461-1.029,3.461-2.117c0-1.089-1.511-1.986-3.461-2.117c-0.162-0.011-0.325-0.017-0.493-0.017
								C2119.553,936.641,2117.783,937.596,2117.783,938.774z"/>
							<path style="fill:#3F65B2;" d="M2119.83,938.774c0,0.949,0.988,1.765,2.399,2.117c1.95-0.13,3.461-1.029,3.461-2.117
								c0-1.089-1.511-1.986-3.461-2.117C2120.818,937.009,2119.83,937.824,2119.83,938.774z"/>
							<polygon style="fill:#3F65B2;" points="2118.111,952.512 2124.991,952.512 2127.417,940.832 2116.057,940.832 							"/>
							<rect x="2115.443" y="939.952" style="fill:#2B478B;" width="12.587" height="1.12"/>
							<rect x="2120.118" y="939.952" style="fill:#3F65B2;" width="7.912" height="1.12"/>
							<path style="fill:#365DA4;" d="M2123.855,1030.791h-4.396l0.644-1.951c0.057-0.173,0.219-0.29,0.4-0.29h2.06
								c0.224,0,0.425,0.135,0.51,0.342L2123.855,1030.791z"/>
							<polygon style="fill:#F9DDBF;" points="2126.604,941.401 2116.901,941.401 2118.797,951.899 2124.368,951.899 							"/>
							<path style="fill:#C7DCF9;" d="M2125.43,938.9c0,0-0.74-1.614-2.199-1.565c0,0,0.93,0.826,0.844,1.565
								C2123.989,939.639,2125.43,938.9,2125.43,938.9z"/>
							<polygon style="fill:#2B478B;" points="2116.248,939.952 2127.227,939.952 2126.327,938.672 2117.102,938.672 							"/>
							<polygon style="fill:#3F65B2;" points="2118.951,939.952 2127.227,939.952 2126.327,938.672 2119.805,938.672 							"/>
							<polygon style="fill:#FFEBD9;" points="2125.959,941.768 2123.736,941.768 2123.089,951.571 2123.736,951.571 							"/>
						</g>
						<g>
							<g>
								<path style="fill:#EDBE9D;" d="M2234.863,1032.886l1.467,5.768c0,0.004,0,0.004,0,0.007l4.342,17.085
									c0.059,0.224,0.258,0.379,0.485,0.379c0.44,0,0.774-0.403,0.688-0.833l-3.873-19.929l-0.482-2.477H2234.863z"/>
							</g>
							<path style="fill:#B27D59;" d="M2236.33,1038.653c-0.142-2.951,1.643-3.291,1.643-3.291l-0.482-2.477h-2.627
								L2236.33,1038.653z"/>
						</g>
						<g>
							<g>
								<path style="fill:#EDBE9D;" d="M2216.279,1032.886l1.467,5.768c0,0.004,0,0.004,0,0.007l4.342,17.085
									c0.059,0.224,0.259,0.379,0.485,0.379c0.441,0,0.775-0.403,0.688-0.833l-3.873-19.929l-0.482-2.477H2216.279z"/>
							</g>
							<path style="fill:#B27D59;" d="M2217.746,1038.653c-0.141-2.951,1.643-3.291,1.643-3.291l-0.482-2.477h-2.627
								L2217.746,1038.653z"/>
						</g>
						<g>
							<g>
								<path style="fill:#EDBE9D;" d="M2144.174,1032.886l-1.467,5.768c0,0.004,0,0.004,0,0.007l-4.342,17.085
									c-0.059,0.224-0.259,0.379-0.486,0.379c-0.44,0-0.774-0.403-0.688-0.833l3.873-19.929l0.482-2.477H2144.174z"/>
							</g>
							<path style="fill:#B27D59;" d="M2142.707,1038.653c0.141-2.951-1.643-3.291-1.643-3.291l0.482-2.477h2.627L2142.707,1038.653
								z"/>
						</g>
						<g>
							<g>
								<path style="fill:#EDBE9D;" d="M2162.757,1032.886l-1.466,5.768c0,0.004,0,0.004,0,0.007l-4.343,17.085
									c-0.058,0.224-0.258,0.379-0.485,0.379c-0.44,0-0.774-0.403-0.688-0.833l3.874-19.929l0.481-2.477H2162.757z"/>
							</g>
							<path style="fill:#B27D59;" d="M2161.291,1038.653c0.141-2.951-1.643-3.291-1.643-3.291l0.481-2.477h2.627L2161.291,1038.653
								z"/>
						</g>
						<path style="fill:#D3A07D;" d="M2217.937,1030.421h17.76c1.773-2.61-0.244-8.649-0.833-11.324
							c-0.638-2.886,2.848-7.503,3.897-8.811h-13.952C2222.922,1015.516,2218.69,1026.344,2217.937,1030.421z"/>
						<path style="fill:#D3A07D;" d="M2154.789,1030.421h17.76c1.773-2.61-0.244-8.649-0.833-11.324
							c-0.637-2.886,2.848-7.503,3.898-8.811h-13.952C2159.775,1015.516,2155.543,1026.344,2154.789,1030.421z"/>
						<path style="fill:#FFA49F;" d="M1718.524,868.352c0,0,5.315,2.181,6.233,6.198S1717.801,877.763,1718.524,868.352z"/>
						<path style="fill:#FFA49F;" d="M1712.592,822.672c0,0-8.436,7.001-12.051,3.213
							C1696.925,822.098,1712.592,822.672,1712.592,822.672z"/>
						<path style="fill:#FFA49F;" d="M1669.38,906.284c0,0,11.879,2.411,10.33,6.026
							C1678.16,915.925,1669.38,906.284,1669.38,906.284z"/>
						<path style="fill:#FFA49F;" d="M1739.678,903.932c0,0-0.317,7.581-6.931,7.463
							C1732.747,911.394,1730.611,906.112,1739.678,903.932z"/>
						<path style="fill:#FFA49F;" d="M1834.71,926.886c0,0,3.558,4.936,7.115,5.165c3.559,0.23,4.706,4.132,0,4.361
							C1837.119,936.642,1833.677,928.837,1834.71,926.886z"/>
						<path style="fill:#FFA49F;" d="M1853.991,911.394c0,0-2.41,6.769-5.279,4.932
							C1845.843,914.49,1853.991,911.394,1853.991,911.394z"/>
					</g>
				</g>
				
					<rect x="2392.895" y="590.597" transform="matrix(-1 -1.224647e-16 1.224647e-16 -1 4802.8496 1794.0337)" style="fill:#916140;" width="17.061" height="612.839"/>
				<path style="fill:#916140;" d="M2076.247,1224.548h18.712l-6.185,24.827c-19.253,6.057-27.296,39.883-27.296,39.883
					L2076.247,1224.548z"/>
				<path style="fill:#916140;" d="M1689.518,1224.548h18.712l-6.185,24.827c-19.252,6.057-26.973,39.883-26.973,39.883
					L1689.518,1224.548z"/>
			</g>
		</g>
		<rect x="294.907" y="1608.399" style="fill:#B2443B;" width="2469.093" height="111.946"/>
		<g>
			<g>
				<path style="fill:#EFA26F;" d="M350.102,1523.924l-13.506,37.752c0,0-8.318,0.466-9.904,9.535
					c-1.586,9.068-2.326,59.145-2.326,59.145l-36.662-14.311c0.668-1.587,8.027-57.906,6.902-66.466
					c-1.111-8.563-13.535-22.792-2.71-40.423c5.889-9.585,5.455-21.314,3.854-29.991c-0.597-3.176-1.336-5.946-1.996-8.058
					c-0.339-1.107-0.045-2.186,0.614-2.953c0.721-0.837,1.864-1.285,3.075-0.986c3.116,0.789,7.043,2.713,10.151,7.274
					c2.274,3.314,2.783,8.979,4.174,14.594c5.576-5.491,18.786-5.209,24.733-3.198
					C346.676,1489.264,350.102,1523.924,350.102,1523.924z"/>
				<path style="fill:#FFC197;" d="M296.807,1478.72l-1.057,0.445c-0.597-3.176-3.738-9.34-4.399-11.452
					c-0.339-1.105,1.882-0.925,2.764-0.206c0.548,0.276,1.266,1.364,1.578,1.935c0.907,1.643,2.042,3.87,2.664,5.858
					C298.806,1476.678,298.148,1478.16,296.807,1478.72z"/>
			</g>
			<g>
				<g>
					<path style="fill:#EFCBAB;" d="M338.847,1568.454l-1.104,0.327c-3.62,1.075-7.07,0.161-7.669-2.031l-37.179-135.823
						l8.165-2.425l43.01,134.171C344.749,1564.798,342.4,1567.398,338.847,1568.454z"/>
				</g>
				<path style="fill:#739AF0;" d="M386.395,1406.731l-177.282,52.643c-5.001,1.485-10.306-1.392-11.792-6.392l-48.593-163.645
					c-1.484-5,1.392-10.306,6.392-11.791l177.282-52.643c5-1.484,10.306,1.391,11.791,6.391l48.594,163.645
					C394.271,1399.941,391.395,1405.246,386.395,1406.731z"/>
				<path style="fill:#FCECDB;" d="M351.722,1407.664l-113.046,33.568c-17.578,5.22-36.229-4.891-41.45-22.469l-29.902-100.7
					c-5.22-17.577,4.892-36.23,22.469-41.45l113.046-33.568c17.578-5.219,36.23,4.893,41.449,22.47l29.903,100.7
					C379.41,1383.793,369.299,1402.444,351.722,1407.664z"/>
				<g>
					<path style="fill:#B2443B;" d="M315.993,1377.007c-1.633-5.495-5.631-7.299-11.987-5.413l-9.833,2.926l-19.003-64.002
						l-4.222-14.214c-1.462-4.918-2.753-7.86-3.885-8.838c-1.126-0.974-3.184-1.021-6.173-0.13
						c-3.083,0.913-7.099,2.316-12.046,4.203c-4.94,1.887-8.46,3.561-10.542,5.017c-4.103,2.796-5.635,5.921-4.604,9.393
						c1.433,4.823,5.035,6.368,10.819,4.652l9.54-2.836l5.341,17.988l16.126,54.302l-11.279,3.349
						c-6.456,1.916-8.855,5.672-7.192,11.262c0.801,2.701,2.364,4.517,4.686,5.448c2.324,0.937,4.877,0.99,7.677,0.159
						l39.608-11.762C315.386,1386.624,317.708,1382.785,315.993,1377.007z"/>
				</g>
			</g>
			<g>
				<path style="fill:#FFB27D;" d="M338.993,1487.987l-27.238,13.444c-2.276,1.207-4.333,0.81-5.54-1.465l-2.246-4.236
					c-1.206-2.274-0.332-5.123,1.943-6.328l21.429-12.734c2.801-1.622,6.489-0.621,8.321,1.498
					C335.663,1478.166,343.542,1485.823,338.993,1487.987z"/>
				<path style="fill:#FFB27D;" d="M346.718,1500.635l-27.637,14.652c-3.594,1.906-8.094,0.524-10-3.07l0,0
					c-1.906-3.594-0.524-8.094,3.07-9.999l27.637-14.652c3.594-1.905,6.883-3.077,9.999,3.07l0,0
					C353.119,1495.461,350.313,1498.729,346.718,1500.635z"/>
				<path style="fill:#FFB27D;" d="M350.078,1512.394l-22.42,10.629c-3.102,1.645-6.337,1.367-7.982-1.734l0,0
					c-1.644-3.102-0.452-6.986,2.65-8.631l21.772-11.542c3.1-1.645,6.153-3.432,8.629,2.649l0,0
					C354.777,1507.918,353.204,1510.813,350.078,1512.394z"/>
				<path style="fill:#FFB27D;" d="M353.958,1522.525l-12.764,6.767c-2.677,1.42-6.027,0.39-7.447-2.286l0,0
					c-1.419-2.677-0.39-6.026,2.286-7.445l12.764-6.768c2.677-1.419,6.027-0.391,7.447,2.285l0,0
					C357.664,1517.755,356.635,1521.105,353.958,1522.525z"/>
				<path style="fill:#FFC197;" d="M304.521,1492.993c1.569-1.043,3.704-2.346,5.635-3.134c1.336-0.545,2.865-0.01,3.532,1.27
					l1.918,3.675c0.664,1.274,0.192,2.851-1.074,3.532c-1.555,0.839-3.735,1.924-5.948,2.73c-1.553,0.566-3.281-0.145-4.008-1.628
					l-1.157-2.359C302.71,1495.63,303.179,1493.886,304.521,1492.993z"/>
				<path style="fill:#FFC197;" d="M308.965,1507.45c1.553-1.032,3.665-2.321,5.577-3.103c1.322-0.538,2.834-0.008,3.494,1.258
					l1.898,3.637c0.658,1.262,0.19,2.821-1.063,3.496c-1.54,0.829-3.696,1.903-5.888,2.702c-1.535,0.56-3.246-0.143-3.966-1.61
					l-1.144-2.337C307.172,1510.061,307.637,1508.334,308.965,1507.45z"/>
				<path style="fill:#FFC197;" d="M319.045,1516.871c1.32-0.878,3.116-1.975,4.741-2.637c1.124-0.458,2.41-0.008,2.971,1.068
					l1.614,3.092c0.559,1.072,0.162,2.398-0.903,2.972c-1.308,0.705-3.143,1.618-5.004,2.296c-1.306,0.479-2.761-0.12-3.372-1.368
					l-0.974-1.986C317.521,1519.091,317.915,1517.621,319.045,1516.871z"/>
				<path style="fill:#FFC197;" d="M333.247,1523.588c1.145-0.762,2.703-1.714,4.112-2.288c0.976-0.397,2.091-0.007,2.578,0.927
					l1.399,2.681c0.485,0.931,0.14,2.081-0.783,2.579c-1.135,0.611-2.726,1.403-4.342,1.991c-1.132,0.414-2.394-0.104-2.924-1.187
					l-0.844-1.724C331.926,1525.512,332.268,1524.237,333.247,1523.588z"/>
			</g>
			<path style="fill:#82B378;" d="M344.401,1720.346H270.14c3.319-42.044,20.152-154.916,20.152-154.916s1.345,0.354,3.532,1.05
				c7.582,2.399,25.264,8.855,31.803,18.562c0.679,1.001,1.238,2.033,1.651,3.106
				C327.278,1588.147,345.78,1685.101,344.401,1720.346z"/>
		</g>
		<g>
			<g>
				<path style="fill:#EFA26F;" d="M2059.124,1661.353c0.578,18.807,3.024,49.413,3.443,50.569l-25.488,8.424h-10.235
					c0.282-7.959,0.943-28.058,0.968-41.549c0.018-5.377-0.071-9.704-0.325-11.798c-0.4-3.36-1.821-5.559-3.414-6.998
					c-2.682-2.411-4.958-5.229-6.663-8.366c-0.93-1.71-1.691-3.514-2.258-5.4l-3.719-12.441l-3.744-12.505l-0.23-0.771
					c0,0,0.678-4.476,2.04-10.271c0.012-0.059,0.023-0.106,0.041-0.159v-0.006c0.819-3.496,1.888-7.452,3.196-11.19
					c0.082-0.241,0.165-0.489,0.254-0.731c1.767-4.894,3.956-9.327,6.562-11.727c0.005-0.006,0.005-0.006,0.012-0.006
					c0.901-0.838,1.852-1.428,2.854-1.704c3.455-0.973,9.363-1.221,14.64-0.089c3.566,0.767,6.846,2.17,8.892,4.404
					c0.266-0.866,0.507-1.738,0.736-2.601c1.174-4.41,2.033-8.607,3.998-11.173c1.379-1.815,2.889-3.148,4.393-4.132
					c1.986-1.297,3.98-1.981,5.701-2.317c1.049-0.201,2.022,0.165,2.676,0.849c0.077,0.083,0.153,0.165,0.219,0.254
					c0.596,0.767,0.818,1.816,0.441,2.854c-0.742,1.992-1.591,4.611-2.322,7.623c-1.97,8.231-2.983,19.445,2.176,28.926
					c9.475,17.435-3.143,30.436-4.646,38.584C2058.936,1649.961,2058.918,1654.984,2059.124,1661.353z"/>
				<path style="fill:#FFC197;" d="M2060.801,1579.911l0.99,0.481c0.732-3.013,4.055-8.759,4.794-10.748
					c0.38-1.043-1.756-0.981-2.637-0.338c-0.541,0.238-1.282,1.243-1.609,1.773c-0.953,1.527-2.153,3.604-2.851,5.477
					C2058.99,1577.854,2059.544,1579.308,2060.801,1579.911z"/>
			</g>
			<g>
				<g>
					<path style="fill:#EFCBAB;" d="M1998.422,1673.314l1.032,0.511c3.385,1.673,6.939,1.358,7.902-0.701l59.672-127.552
						l-7.636-3.774l-65.138,124.935C1993.224,1668.712,1995.099,1671.672,1998.422,1673.314z"/>
				</g>
				<path style="fill:#739AF0;" d="M1978.983,1505.871l165.789,81.943c4.676,2.311,10.394,0.375,12.704-4.3l75.638-153.036
					c2.312-4.676,0.376-10.394-4.3-12.705l-165.788-81.94c-4.676-2.311-10.394-0.377-12.705,4.3l-75.637,153.035
					C1972.373,1497.844,1974.308,1503.562,1978.983,1505.871z"/>
				<path style="fill:#FCECDB;" d="M2012.997,1512.671l105.716,52.251c16.439,8.125,36.535,1.322,44.659-15.115l46.546-94.172
					c8.123-16.438,1.321-36.534-15.116-44.659l-105.718-52.251c-16.438-8.124-36.534-1.322-44.659,15.116l-46.544,94.172
					C1989.756,1484.449,1996.559,1504.546,2012.997,1512.671z"/>
				<path style="fill:#B2443B;" d="M2147.982,1417.406l-32.211-13.608c-3.59-1.521-6.359-1.963-8.295-1.332
					c-1.94,0.631-3.902,2.642-5.896,6.037c-8.649,14.398-14.133,23.679-16.444,27.829c-0.158,0.378-0.996,1.697-2.506,3.957
					c-1.125,1.869-1.809,3.083-2.046,3.648c-2.358,5.583-1.361,9.292,2.99,11.132c2.074,0.879,5.282,1.48,9.604,1.805
					c4.322,0.318,7.522,0.92,9.604,1.798c10.973,4.64,13.904,13.012,8.786,25.117c-2.317,5.489-5.833,9.38-10.543,11.686
					c-4.705,2.3-9.805,2.294-15.288-0.024c-4.729-1.998-8.768-5.63-12.122-10.894c-3.35-5.261-5.825-8.233-7.435-8.909
					c-2.082-0.879-4.121-0.797-6.126,0.252c-2.004,1.05-3.443,2.613-4.327,4.693c-1.038,2.459-1.063,5.295-0.077,8.496
					c1.509,4.876,4.593,9.575,9.256,14.108c4.269,4.146,8.957,7.3,14.063,9.458c7.471,3.154,15.064,4.051,22.777,2.683
					c7.71-1.362,14.426-4.852,20.14-10.465c3.814-3.744,6.975-8.591,9.493-14.551c3.838-9.08,4.397-17.931,1.686-26.545
					c-2.753-9.072-8.62-15.512-17.611-19.314c-3.69-1.557-7.824-2.471-12.394-2.736l11.521-19.202l26.798,11.325
					c6.615,2.795,11.049,1.521,13.313-3.826C2157.027,1424.493,2154.792,1420.283,2147.982,1417.406z"/>
			</g>
			<g>
				<path style="fill:#FFB27D;" d="M2019.92,1586.653l25.412,14.259c2.117,1.271,4.109,0.995,5.38-1.124l2.366-3.944
					c1.271-2.117,0.577-4.89-1.541-6.16l-19.882-13.284c-2.602-1.695-6.186-0.924-8.048,1.014
					C2023.607,1577.413,2015.673,1584.35,2019.92,1586.653z"/>
				<path style="fill:#FFB27D;" d="M2011.88,1598.377l25.732,15.437c3.347,2.007,7.727,0.912,9.734-2.435l0,0
					c2.008-3.347,0.912-7.728-2.436-9.734l-25.731-15.437c-3.347-2.007-6.438-3.296-9.734,2.435l0,0
					C2006.011,1593.096,2008.532,1596.371,2011.88,1598.377z"/>
				<path style="fill:#FFB27D;" d="M2008.066,1609.472l20.939,11.317c2.888,1.732,6,1.63,7.732-1.257l0,0
					c1.732-2.89,0.788-6.67-2.101-8.401l-20.272-12.161c-2.888-1.732-5.721-3.598-8.4,2.102l0,0
					C2003.792,1604.946,2005.151,1607.798,2008.066,1609.472z"/>
				<path style="fill:#FFB27D;" d="M2003.835,1618.979l11.886,7.13c2.491,1.495,5.754,0.679,7.248-1.813l0,0
					c1.495-2.492,0.679-5.754-1.813-7.249l-11.885-7.129c-2.491-1.495-5.753-0.68-7.248,1.813l0,0
					C2000.527,1614.224,2001.344,1617.485,2003.835,1618.979z"/>
				<path style="fill:#FFC197;" d="M2052.688,1593.194c-1.45-1.079-3.428-2.436-5.239-3.287c-1.25-0.591-2.743-0.155-3.447,1.037
					l-2.022,3.422c-0.701,1.188-0.329,2.722,0.85,3.439c1.446,0.881,3.48,2.031,5.561,2.917c1.457,0.62,3.149,0.027,3.92-1.356
					l1.229-2.204C2054.29,1595.813,2053.93,1594.116,2052.688,1593.194z"/>
				<path style="fill:#FFC197;" d="M2047.699,1606.818c-1.435-1.068-3.395-2.41-5.185-3.253c-1.239-0.584-2.715-0.153-3.412,1.025
					l-2.001,3.389c-0.695,1.175-0.326,2.692,0.84,3.403c1.432,0.871,3.444,2.009,5.503,2.886c1.442,0.614,3.118,0.028,3.88-1.342
					l1.216-2.182C2049.284,1609.409,2048.927,1607.731,2047.699,1606.818z"/>
				<path style="fill:#FFC197;" d="M2037.565,1615.333c-1.221-0.908-2.885-2.05-4.407-2.767c-1.054-0.496-2.308-0.13-2.9,0.873
					l-1.701,2.88c-0.591,0.999-0.277,2.289,0.714,2.893c1.218,0.741,2.929,1.708,4.677,2.454c1.228,0.521,2.651,0.023,3.301-1.141
					l1.032-1.854C2038.913,1617.535,2038.61,1616.108,2037.565,1615.333z"/>
				<path style="fill:#FFC197;" d="M2023.621,1621.047c-1.059-0.788-2.502-1.778-3.823-2.399c-0.913-0.431-2.002-0.112-2.516,0.757
					l-1.477,2.498c-0.513,0.865-0.239,1.986,0.62,2.51c1.056,0.643,2.54,1.481,4.058,2.128c1.063,0.452,2.298,0.021,2.861-0.989
					l0.896-1.608C2024.789,1622.957,2024.526,1621.72,2023.621,1621.047z"/>
			</g>
			<path style="fill:#82B378;" d="M2069.514,1720.346h-50.883c4.104-21.985,7.718-38.871,7.718-38.871
				c0.383-0.921,0.872-1.816,1.463-2.678c6.402-9.415,24.055-15.34,31.313-17.444c1.98-0.573,3.189-0.862,3.189-0.862
				S2065.774,1687.925,2069.514,1720.346z"/>
		</g>
		<g>
			<g>
				<path style="fill:#EFA26F;" d="M1085.951,1546.914l11.221,36.132c0,0,7.823,0.772,8.955,9.385
					c1.133,8.613-8.665,59.585-8.665,59.585l48.523-7.265c-0.565-1.522-10.147-63.402-8.744-71.428
					c1.391-8.027,13.672-20.944,4.174-37.999c-5.168-9.271-4.289-20.313-2.434-28.427c0.691-2.971,1.499-5.553,2.205-7.518
					c0.365-1.028,0.129-2.059-0.462-2.808c-0.645-0.818-1.704-1.287-2.858-1.054c-2.968,0.619-6.75,2.274-9.862,6.451
					c-2.277,3.033-2.983,8.353-4.519,13.591c-5.038-5.398-17.501-5.663-23.189-4.005
					C1090.568,1514.376,1085.951,1546.914,1085.951,1546.914z"/>
				<path style="fill:#FFC197;" d="M1138.005,1506.434l0.977,0.464c0.691-2.971,3.899-8.656,4.606-10.622
					c0.364-1.028-1.738-0.945-2.596-0.304c-0.529,0.238-1.25,1.234-1.566,1.761c-0.921,1.512-2.08,3.566-2.746,5.416
					C1136.202,1504.429,1136.761,1505.854,1138.005,1506.434z"/>
			</g>
			<g>
				<g>
					<path style="fill:#EFCBAB;" d="M1084.067,1614.579l1.086,0.384c3.561,1.257,7.052,0.52,7.763-1.639l46.674-140.801
						l-8.031-2.835l-52.415,138.853C1078.357,1610.629,1080.571,1613.346,1084.067,1614.579z"/>
				</g>
				<path style="fill:#739AF0;" d="M1047.436,1443.62l174.386,61.562c4.919,1.736,10.363-0.868,12.099-5.787l56.827-160.972
					c1.736-4.918-0.868-10.363-5.787-12.099l-174.385-61.562c-4.918-1.737-10.364,0.868-12.1,5.786l-56.826,160.972
					C1039.914,1436.438,1042.519,1441.884,1047.436,1443.62z"/>
				<path style="fill:#FCECDB;" d="M1082.017,1446.309l111.2,39.256c17.291,6.104,36.432-3.049,42.537-20.34l34.967-99.055
					c6.104-17.29-3.048-36.431-20.339-42.535l-111.2-39.255c-17.291-6.104-36.431,3.049-42.534,20.339l-34.969,99.055
					C1055.575,1421.064,1064.727,1440.205,1082.017,1446.309z"/>
				<path style="fill:#B2443B;" d="M1146.7,1320.5c-0.371-1.479-2.068-2.724-5.083-3.731c-3.119-1.044-7.298-2.224-12.541-3.544
					c-5.241-1.32-9.162-1.981-11.763-1.981c-5.065-0.071-8.184,1.646-9.357,5.153c-1.626,4.87,0.478,8.278,6.32,10.235l9.646,3.226
					l-24.427,73.033l-11.397-3.809c-6.526-2.183-10.73-0.449-12.617,5.199c-0.914,2.73-0.672,5.165,0.72,7.306
					c1.397,2.146,3.502,3.691,6.326,4.634l40.028,13.385c6.427,2.151,10.619,0.306,12.569-5.537
					c1.857-5.555-0.424-9.403-6.851-11.551l-9.935-3.325l26.426-79.022C1146.428,1325.199,1147.071,1321.979,1146.7,1320.5z"/>
				<path style="fill:#B2443B;" d="M1248.422,1371.329c-2.098-11.833-8.047-20.377-17.846-25.63
					c-2.111-1.132-4.399-2.11-6.869-2.936c-13.927-4.658-26.238-2.005-36.927,7.953c-8.354,7.817-15.052,19.274-20.1,34.367
					c-5.052,15.095-6.555,28.343-4.521,39.739c2.547,14.393,10.743,23.896,24.568,28.519c13.826,4.622,26.09,1.958,36.786-8
					c8.478-7.884,15.246-19.368,20.293-34.469c0.331-0.984,0.643-1.962,0.944-2.93c0-0.006,0-0.006,0-0.006
					C1249.042,1394.063,1250.262,1381.865,1248.422,1371.329z M1224.839,1404.453c-3.226,9.657-6.976,17.305-11.238,22.93
					c-6.479,8.679-13.513,11.751-21.107,9.209c-13.148-4.399-15.418-19.469-6.798-45.234c3.196-9.557,6.988-17.187,11.386-22.876
					c6.409-8.484,13.459-11.444,21.155-8.874c7.499,2.512,11.289,9.145,11.373,19.918
					C1229.591,1386.676,1228.005,1394.989,1224.839,1404.453z"/>
			</g>
			<g>
				<path style="fill:#FFB27D;" d="M1097.864,1513.482l25.139,13.765c2.096,1.229,4.052,0.937,5.28-1.16l2.287-3.903
					c1.228-2.096,0.518-4.815-1.578-6.043l-19.691-12.862c-2.576-1.643-6.093-0.846-7.905,1.077
					C1101.396,1504.355,1093.661,1511.259,1097.864,1513.482z"/>
				<path style="fill:#FFB27D;" d="M1090.075,1525.096l25.466,14.92c3.313,1.94,7.61,0.818,9.55-2.493l0,0
					c1.94-3.313,0.818-7.61-2.493-9.55l-25.468-14.921c-3.311-1.94-6.365-3.176-9.549,2.494l0,0
					C1084.248,1519.961,1086.763,1523.154,1090.075,1525.096z"/>
				<path style="fill:#FFB27D;" d="M1086.437,1536.047l20.71,10.917c2.858,1.676,5.92,1.542,7.594-1.316l0,0
					c1.675-2.858,0.707-6.566-2.153-8.24l-20.062-11.755c-2.858-1.674-5.664-3.48-8.242,2.152l0,0
					C1082.186,1531.638,1083.554,1534.43,1086.437,1536.047z"/>
				<path style="fill:#FFB27D;" d="M1082.372,1545.441l11.763,6.892c2.467,1.444,5.666,0.608,7.111-1.857l0,0
					c1.445-2.466,0.609-5.665-1.857-7.111l-11.763-6.891c-2.466-1.444-5.667-0.609-7.111,1.856l0,0
					C1079.07,1540.797,1079.906,1543.996,1082.372,1545.441z"/>
				<path style="fill:#FFC197;" d="M1130.16,1519.581c-1.438-1.046-3.397-2.36-5.187-3.181c-1.237-0.566-2.699-0.123-3.38,1.056
					l-1.954,3.389c-0.679,1.175-0.296,2.68,0.871,3.373c1.432,0.853,3.443,1.961,5.498,2.812c1.44,0.596,3.1-0.004,3.843-1.373
					l1.185-2.181C1131.762,1522.14,1131.389,1520.477,1130.16,1519.581z"/>
				<path style="fill:#FFC197;" d="M1125.393,1533.032c-1.424-1.035-3.363-2.336-5.134-3.147c-1.225-0.561-2.671-0.121-3.345,1.045
					l-1.935,3.353c-0.671,1.163-0.291,2.652,0.862,3.339c1.417,0.844,3.408,1.941,5.44,2.782c1.426,0.59,3.067-0.004,3.804-1.36
					l1.173-2.155C1126.977,1535.564,1126.61,1533.918,1125.393,1533.032z"/>
				<path style="fill:#FFC197;" d="M1115.512,1541.511c-1.21-0.881-2.859-1.986-4.364-2.676c-1.041-0.479-2.271-0.104-2.845,0.888
					l-1.643,2.85c-0.571,0.988-0.25,2.255,0.731,2.838c1.205,0.717,2.898,1.651,4.626,2.366c1.211,0.5,2.606-0.004,3.232-1.156
					l0.998-1.833C1116.859,1543.662,1116.547,1542.263,1115.512,1541.511z"/>
				<path style="fill:#FFC197;" d="M1101.854,1547.272c-1.048-0.764-2.479-1.723-3.785-2.321c-0.902-0.414-1.97-0.09-2.467,0.77
					l-1.426,2.473c-0.495,0.858-0.215,1.955,0.636,2.463c1.044,0.621,2.513,1.432,4.012,2.051c1.051,0.436,2.262-0.004,2.804-1.002
					l0.865-1.59C1103.023,1549.14,1102.752,1547.926,1101.854,1547.272z"/>
			</g>
			<path style="fill:#2B478B;" d="M1156.605,1720.346h-68.871c0.619-10.941,2.27-24.738,4.327-38.918
				c0.854-5.914,1.78-11.887,2.736-17.747c0.206-1.274,0.413-2.548,0.613-3.804c0.236-1.414,0.472-2.823,0.708-4.221
				c0.229-1.345,0.454-2.683,0.684-4.004c0.478-2.801,0.961-5.537,1.427-8.189c0.277-0.023,0.56-0.054,0.842-0.076
				c9.358-0.908,23.415-2.824,31.137-6.616c5.172-2.541,9.769-4.775,13.437-6.195c0.885-0.342,1.71-0.638,2.483-0.873
				c0.902,7.068,1.857,14.604,2.818,22.321C1151.917,1676.027,1154.924,1701.769,1156.605,1720.346z"/>
			<path style="fill:#233862;" d="M1148.949,1652.025c0,0-50.858,16.767-56.89,29.402c0.858-5.912,1.78-11.887,2.736-17.747
				c0.212-1.274,0.414-2.549,0.619-3.804c2.018-1.794,4.505-3.032,7.532-3.332L1148.949,1652.025z"/>
			<path style="fill:#2B478B;" d="M1148.949,1652.025c-13.424,5.389-41.978,12.508-54.154,11.655
				c-1.582-0.11-2.888-0.355-3.849-0.759c0,0-2.655-1.834-1.844-4.712c0.084-0.292,0.201-0.608,0.372-0.93
				c1.086-2.119-1.172-6.179-1.745-9.283c-0.354-1.882-0.081-3.401,1.936-3.918c0,0,3.493-0.154,8.563-0.618
				c9.344-0.869,24.024-2.779,31.979-6.691c6.424-3.153,11.956-5.833,15.922-7.066c3.613-1.119,5.912-1.039,6.371,0.966
				c0.963,4.216,1.262,12.388,3.602,16.666C1156.662,1648.37,1153.787,1650.085,1148.949,1652.025z"/>
			<path style="fill:#233862;" d="M1104.933,1653.488c-1.493,0.325-13.881,3.11-15.83,4.722c0.084-0.292,0.201-0.608,0.372-0.93
				c1.086-2.119-1.172-6.179-1.745-9.283c0.95,0.843,5.666,4.499,14.874,3.792
				C1112.995,1650.996,1106.567,1653.137,1104.933,1653.488z"/>
		</g>
		<g>
			<g>
				<path style="fill:#EFA26F;" d="M1731.496,1600.968l25.254,31.683c0,0,8.106-2.272,12.586,5.88
					c4.481,8.153,21.556,55.793,21.556,55.793l30.378-25.667c-1.156-1.3-26.602-52.744-28.323-61.296
					c-1.737-8.551,5.491-26.217-10.622-39.538c-8.764-7.238-12.181-18.596-13.487-27.414c-0.468-3.233-0.667-6.124-0.725-8.359
					c-0.038-1.168-0.672-2.104-1.554-2.62c-0.962-0.566-2.202-0.621-3.262,0.06c-2.722,1.773-5.85,4.896-7.331,10.273
					c-1.09,3.913,0.275,9.495,0.78,15.319c-7.127-3.428-19.664,1.159-24.693,5.025
					C1723.443,1566.708,1731.496,1600.968,1731.496,1600.968z"/>
				<path style="fill:#FFC197;" d="M1767.681,1540.325l1.156,0.083c-0.468-3.233,0.522-10.153,0.463-12.39
					c-0.037-1.168-2.103-0.268-2.71,0.706c-0.434,0.444-0.764,1.72-0.876,2.365c-0.332,1.867-0.688,4.369-0.634,6.473
					C1765.103,1539.026,1766.216,1540.229,1767.681,1540.325z"/>
			</g>
			<path style="fill:#F99746;" d="M1774.311,1654.914c0,0,1.728,12.211,4.535,29.486c0.017,0.117,0.035,0.235,0.058,0.348
				c0.071,0.473,0.147,0.937,0.224,1.392c0,0.023,0.007,0.053,0.012,0.076c0.071,0.448,0.143,0.892,0.219,1.333
				c0.219,1.326,0.441,2.671,0.689,4.168c0.254,1.521,0.513,3.066,0.779,4.641c0.271,1.592,0.541,3.213,0.831,4.852
				c2.699,15.73,3.169,18.021,3.415,19.137h65.83c-11.031-22.563-13.009-24.944-26.883-50.674c-0.836-1.557-1.663-3.084-2.476-4.587
				c-11.026-20.405-19.428-35.659-19.988-36.673c-0.017-0.035-0.03-0.053-0.03-0.053s-24.449,5.524-27.049,22.032
				C1774.24,1651.813,1774.182,1653.322,1774.311,1654.914z"/>
			<g>
				<g>
					<path style="fill:#EFCBAB;" d="M1763.362,1649.884l1.146-0.109c3.759-0.36,6.615-2.501,6.35-4.758l-17.563-151.261
						l-8.479,0.814l11.538,151.913C1756.52,1648.708,1759.673,1650.238,1763.362,1649.884z"/>
				</g>
				<path style="fill:#739AF0;" d="M1657.543,1506.375l184.088-17.652c5.193-0.497,9.033-5.152,8.536-10.345l-16.295-169.928
					c-0.499-5.192-5.154-9.034-10.346-8.535l-184.088,17.652c-5.192,0.497-9.034,5.152-8.536,10.345l16.294,169.928
					C1647.695,1503.032,1652.351,1506.874,1657.543,1506.375z"/>
				<path style="fill:#FCECDB;" d="M1690.037,1494.242l117.387-11.256c18.251-1.75,31.754-18.116,30.004-36.367l-10.026-104.567
					c-1.751-18.253-18.116-31.754-36.369-30.004l-117.387,11.256c-18.252,1.75-31.754,18.116-30.005,36.37l10.029,104.565
					C1655.419,1482.49,1671.785,1495.992,1690.037,1494.242z"/>
				<path style="fill:#B2443B;" d="M1720.273,1395.521c-8.731-4.504-13.542-11.922-14.427-22.258
					c-0.755-8.802,1.856-16.184,7.835-22.162c5.702-5.642,13.055-8.85,22.058-9.622s16.744,1.145,23.218,5.736
					c6.91,4.876,10.743,11.71,11.497,20.507c0.879,10.229-2.547,18.36-10.275,24.379c12.251,4.617,18.948,13.68,20.11,27.187
					c0.919,10.743-1.969,19.697-8.673,26.868c-6.326,6.727-14.965,10.56-25.913,11.497s-20.223-1.434-27.816-7.123
					c-7.601-5.684-11.869-13.948-12.795-24.798C1703.925,1412.131,1708.982,1402.055,1720.273,1395.521z M1724.772,1422.737
					c0.507,5.855,2.412,10.371,5.725,13.555c3.314,3.178,7.889,4.521,13.72,4.021c5.732-0.495,9.954-2.589,12.677-6.286
					c2.725-3.702,3.832-8.478,3.331-14.332c-0.483-5.648-2.416-10.142-5.795-13.473c-3.615-3.727-8.131-5.353-13.556-4.894
					c-5.524,0.478-9.71,2.748-12.558,6.821C1725.475,1412.225,1724.289,1417.083,1724.772,1422.737z M1724.354,1372.757
					c0.377,4.399,1.945,7.948,4.699,10.649c2.759,2.699,6.285,3.866,10.583,3.502c4.298-0.372,7.594-2.2,9.887-5.489
					c2.117-2.967,2.984-6.646,2.607-11.044c-0.343-3.991-1.923-7.075-4.735-9.256c-2.817-2.176-6.22-3.102-10.205-2.76
					c-4.199,0.359-7.471,1.828-9.83,4.398C1725.009,1365.335,1724.001,1368.666,1724.354,1372.757z"/>
			</g>
			<g>
				<path style="fill:#FFB27D;" d="M1730.373,1562.976l30.438,3.953c2.569,0.409,4.408-0.643,4.817-3.212l0.763-4.784
					c0.409-2.569-1.357-5.006-3.927-5.416l-24.65-5.172c-3.21-0.636-6.408,1.527-7.467,4.152
					C1730.348,1552.497,1725.316,1562.394,1730.373,1562.976z"/>
				<path style="fill:#FFB27D;" d="M1727.121,1577.595l31.214,4.977c4.061,0.647,7.911-2.144,8.559-6.204l0,0
					c0.646-4.059-2.146-7.91-6.204-8.558l-31.215-4.977c-4.059-0.648-7.588-0.692-8.558,6.203l0,0
					C1719.309,1574.738,1723.063,1576.947,1727.121,1577.595z"/>
				<path style="fill:#FFB27D;" d="M1727.752,1589.936l24.91,2.835c3.504,0.559,6.507-0.765,7.064-4.269h0.002
					c0.558-3.502-1.852-6.826-5.355-7.385l-24.59-3.921c-3.503-0.559-7.005-1.27-7.386,5.354l0,0
					C1721.795,1587.19,1724.245,1589.444,1727.752,1589.936z"/>
				<path style="fill:#FFB27D;" d="M1727.352,1600.891l14.418,2.299c3.022,0.482,5.89-1.597,6.372-4.619l0,0
					c0.481-3.022-1.595-5.891-4.62-6.372l-14.416-2.299c-3.023-0.482-5.891,1.597-6.372,4.619l0,0
					C1722.251,1597.541,1724.33,1600.408,1727.352,1600.891z"/>
				<path style="fill:#FFC197;" d="M1764.971,1556.496c-1.842-0.484-4.31-1.034-6.413-1.155c-1.455-0.085-2.741,0.927-2.961,2.368
					l-0.633,4.141c-0.22,1.436,0.747,2.789,2.181,3.026c1.761,0.294,4.199,0.618,6.58,0.666c1.669,0.035,3.091-1.209,3.301-2.865
					l0.333-2.636C1767.563,1558.426,1766.544,1556.91,1764.971,1556.496z"/>
				<path style="fill:#FFC197;" d="M1765.446,1571.771c-1.822-0.479-4.264-1.022-6.347-1.144c-1.438-0.083-2.712,0.918-2.93,2.344
					l-0.627,4.099c-0.217,1.421,0.74,2.76,2.16,2.995c1.741,0.29,4.155,0.611,6.512,0.658c1.65,0.035,3.057-1.197,3.266-2.835
					l0.33-2.608C1768.014,1573.682,1767.006,1572.182,1765.446,1571.771z"/>
				<path style="fill:#FFC197;" d="M1758.887,1584.074c-1.549-0.408-3.623-0.869-5.395-0.972c-1.225-0.072-2.307,0.779-2.492,1.992
					l-0.531,3.483c-0.185,1.208,0.629,2.346,1.836,2.547c1.48,0.247,3.532,0.52,5.535,0.561c1.403,0.028,2.599-1.019,2.776-2.411
					l0.28-2.218C1761.07,1585.697,1760.212,1584.423,1758.887,1584.074z"/>
				<path style="fill:#FFC197;" d="M1747.503,1595.137c-1.345-0.354-3.145-0.754-4.68-0.843c-1.063-0.062-2.001,0.678-2.16,1.729
					l-0.463,3.021c-0.159,1.048,0.547,2.035,1.592,2.209c1.285,0.214,3.064,0.451,4.802,0.485c1.218,0.025,2.256-0.882,2.408-2.091
					l0.244-1.923C1749.396,1596.545,1748.652,1595.438,1747.503,1595.137z"/>
			</g>
			<g>
				<path style="fill:#2B478B;" d="M1778.549,1685.001c0.071-0.165,0.214-0.436,0.297-0.601c0.017,0.117,0.035,0.235,0.058,0.348
					c0.071,0.473,0.147,0.937,0.224,1.392c0,0.023,0.007,0.053,0.012,0.076c0.071,0.448,0.143,0.892,0.219,1.333
					c0.219,1.326,0.441,2.671,0.689,4.168c-0.018,0.137-0.034,0.771-0.041,0.896c-0.07,1.386,0.142,2.576,0.666,3.491
					c0.048,0.088,0.095,0.17,0.154,0.253c0.1,0.159,0.212,0.307,0.336,0.442c1.716,1.938,5.424,2.141,10.182,0.548
					c5.284-1.764,11.18-5.454,16.574-10.412c5.707-5.235,10.7-12.104,12.7-17.725c0.129-0.358,0.241-0.706,0.342-1.054
					c0.329-1.091,0.523-2.123,0.584-3.072v-0.036c0.088-1.697-0.272-3.131-1.21-4.186c-0.441-0.507-0.99-0.891-1.627-1.156
					c-0.701-1.325-1.38-2.61-2.053-3.878c2.602,0.152,4.747,1.025,6.227,2.7c2.271,2.569,2.553,6.538,1.139,11.143
					c-0.006,0.012-0.006,0.03-0.012,0.042c-1.875,6.107-6.732,13.318-13.803,19.804c-5.742,5.277-12.069,9.239-17.799,11.137
					c-2.777,0.939-5.29,1.333-7.466,1.221c-1.202-0.064-2.305-0.281-3.283-0.666c-0.047-0.011-0.089-0.028-0.131-0.047
					c-0.063-0.024-0.129-0.053-0.199-0.083c-1.062-0.453-1.97-1.108-2.718-1.945
					C1775.909,1696.08,1775.886,1691.068,1778.549,1685.001z"/>
			</g>
		</g>
		<g>
			<path style="fill:#EFA26F;" d="M1500.673,1494.007c0,0.06-0.008,0.118-0.012,0.177c-0.372,6.19-1.021,10.867-1.021,10.867
				l-0.466,0.713l-17.323,26.408l-4.203,6.415c0,0-5.884-1.073-9.917,3.73c-0.725,0.868-1.391,1.924-1.951,3.214
				c-0.814,1.87-2.058,5.695-3.502,10.525c0,0.006-1.586,34.685-4.799,70.691c-0.719,8.036-1.516,16.132-2.394,23.926h-69.219
				c5.808-14.91,12.817-32.21,19.756-49.049c15.837-38.436,31.309-74.506,31.326-74.541c1.504-4.7,2.518-8.35,2.712-10.118
				c0.931-8.591-7.806-25.34,6.863-39.945c7.977-7.93,10.3-19.439,10.79-28.247c0.166-3.236-1.45-9.965-1.591-12.17
				c-0.066-1.162,2.045-0.465,2.734,0.443c0.136,0.116,0.26,0.299,0.389,0.507c0.861-0.489,1.934-0.573,2.93-0.054
				c2.842,1.504,6.215,4.293,8.16,9.464c1.204,3.142,0.809,7.593,0.673,12.351c-0.029,0.926-0.047,1.869-0.042,2.813
				c0.013-0.005,0.023-0.011,0.035-0.018c2.842-1.692,6.757-2.069,10.731-1.68c5.43,0.524,10.972,2.464,14.039,4.393
				c0.92,0.577,1.692,1.45,2.346,2.553c0.005,0.006,0.005,0.011,0.012,0.017c1.881,3.185,2.741,8.268,3.042,13.68
				c0.018,0.271,0.036,0.536,0.047,0.802C1501.009,1486,1500.896,1490.274,1500.673,1494.007z"/>
			<g>
				<g>
					<path style="fill:#EFCBAB;" d="M1475.286,1555.322l-1.151-0.017c-3.776-0.054-6.797-1.955-6.716-4.227l5.036-140.729
						l8.517,0.122l1.024,140.891C1482.01,1553.594,1478.993,1555.375,1475.286,1555.322z"/>
				</g>
				<path style="fill:#739AF0;" d="M1568.916,1415.149l-184.914-2.644c-5.216-0.073-9.422-4.402-9.348-9.618l2.44-170.689
					c0.074-5.216,4.403-9.422,9.618-9.347l184.914,2.644c5.215,0.074,9.421,4.402,9.348,9.617l-2.44,170.69
					C1578.459,1411.018,1574.131,1415.225,1568.916,1415.149z"/>
				<path style="fill:#FCECDB;" d="M1535.543,1405.695l-117.913-1.685c-18.334-0.263-33.119-15.478-32.858-33.813l1.502-105.035
					c0.262-18.334,15.477-33.12,33.812-32.857l117.913,1.686c18.334,0.261,33.121,15.477,32.858,33.811l-1.501,105.036
					C1569.093,1391.171,1553.878,1405.958,1535.543,1405.695z"/>
				<path style="fill:#B2443B;" d="M1507.388,1311.066c-5.648-7.494-13.195-11.243-22.64-11.243c-4.929,0-9.452,0.926-13.555,2.771
					h-0.306c5.849-9.24,13.861-18.891,24.026-28.956c2.258-2.258,3.39-4.516,3.39-6.779c0-2.565-0.926-4.723-2.776-6.469
					c-1.847-1.745-4.057-2.617-6.622-2.617c-2.571,0-7.187,3.391-13.861,10.165c-23.106,23.519-34.657,45.594-34.657,66.235
					c0,11.19,3.23,20.588,9.705,28.182c6.874,8.114,15.808,12.171,26.797,12.171c11.397,0,20.642-3.591,27.728-10.779
					c7.081-7.187,10.626-16.484,10.626-27.881C1515.242,1326.113,1512.623,1317.848,1507.388,1311.066z M1490.597,1350.193
					c-3.185,4.002-7.548,6.001-13.089,6.001c-5.548,0-9.858-2.205-12.941-6.621c-2.671-3.902-4.004-8.779-4.004-14.633
					c0-4.517,0.873-8.161,2.619-10.932c3.184-5.136,8.113-7.706,14.787-7.706c5.547,0,9.758,1.875,12.629,5.625
					c2.876,3.75,4.315,8.449,4.315,14.091C1494.912,1341.773,1493.473,1346.496,1490.597,1350.193z"/>
			</g>
			<g>
				<path style="fill:#FFB27D;" d="M1497.285,1467.501l-29.642,6.676c-2.496,0.638-4.403-0.23-5.042-2.726l-1.188-4.646
					c-0.639-2.495,0.881-5.059,3.376-5.697l23.826-7.349c3.105-0.92,6.455,0.921,7.739,3.411
					C1496.354,1457.17,1502.218,1466.466,1497.285,1467.501z"/>
				<path style="fill:#FFB27D;" d="M1501.825,1481.614l-30.313,7.755c-3.942,1.01-7.993-1.391-9.002-5.332l0,0
					c-1.009-3.942,1.391-7.994,5.334-9.003l30.313-7.755c3.942-1.009,7.417-1.375,9.002,5.333l0,0
					C1509.265,1478.086,1505.768,1480.605,1501.825,1481.614z"/>
				<path style="fill:#FFB27D;" d="M1502.331,1493.837l-24.296,5.068c-3.403,0.871-6.483-0.16-7.354-3.563l0,0
					c-0.871-3.401,1.201-6.897,4.604-7.768l23.879-6.11c3.403-0.87,6.791-1.891,7.77,4.604l0,0
					C1507.951,1490.588,1505.742,1493.033,1502.331,1493.837z"/>
				<path style="fill:#FFB27D;" d="M1503.725,1504.598l-14.001,3.583c-2.937,0.751-5.952-1.036-6.704-3.972l0,0
					c-0.75-2.936,1.036-5.951,3.972-6.702l14.001-3.583c2.936-0.75,5.952,1.036,6.703,3.972l0,0
					C1508.447,1500.83,1506.661,1503.847,1503.725,1504.598z"/>
				<path style="fill:#FFC197;" d="M1462.592,1464.272c1.771-0.646,4.152-1.411,6.215-1.725c1.427-0.216,2.788,0.664,3.136,2.065
					l1.001,4.022c0.348,1.396-0.483,2.818-1.874,3.184c-1.709,0.449-4.084,0.992-6.425,1.258c-1.642,0.186-3.156-0.911-3.515-2.524
					l-0.57-2.567C1460.211,1466.412,1461.077,1464.824,1462.592,1464.272z"/>
				<path style="fill:#FFC197;" d="M1463.517,1479.374c1.753-0.64,4.11-1.398,6.151-1.706c1.412-0.215,2.758,0.656,3.103,2.042
					l0.992,3.982c0.343,1.381-0.478,2.788-1.855,3.15c-1.691,0.444-4.041,0.981-6.358,1.243c-1.625,0.184-3.124-0.901-3.478-2.498
					l-0.565-2.539C1461.161,1481.491,1462.018,1479.92,1463.517,1479.374z"/>
				<path style="fill:#FFC197;" d="M1471.105,1490.901c1.491-0.543,3.494-1.188,5.229-1.45c1.201-0.183,2.345,0.559,2.639,1.736
					l0.842,3.385c0.292,1.174-0.406,2.37-1.576,2.679c-1.438,0.378-3.436,0.834-5.406,1.057c-1.382,0.157-2.656-0.766-2.957-2.123
					l-0.479-2.159C1469.103,1492.701,1469.831,1491.366,1471.105,1490.901z"/>
				<path style="fill:#FFC197;" d="M1483.337,1500.767c1.292-0.471,3.031-1.029,4.536-1.258c1.041-0.157,2.034,0.484,2.288,1.507
					l0.73,2.936c0.253,1.019-0.352,2.056-1.368,2.323c-1.246,0.327-2.979,0.724-4.687,0.917c-1.2,0.136-2.304-0.664-2.565-1.841
					l-0.417-1.874C1481.601,1502.328,1482.231,1501.171,1483.337,1500.767z"/>
			</g>
			<path style="fill:#739AF0;" d="M1457.479,1626.748c-0.719,8.036-7.101,85.804-7.979,93.598h-91.697
				c5.808-14.91,40.881-101.882,47.82-118.721C1405.623,1601.625,1419.208,1630.563,1457.479,1626.748z"/>
		</g>
		<g>
			<g>
				<path style="fill:#EFA26F;" d="M2402.998,1679.42l-1.793,0.926h-34.097c-1.516-11.785-3.573-26.961-5.1-35.281
					c-0.39-2.11-0.743-3.778-1.044-4.84c-0.507-1.786-1.262-3.184-2.135-4.274c-3.313-4.146-8.354-3.903-8.354-3.903l-3.762-7.824
					l-12.688-26.391v-0.006l-0.354-0.736c0,0-0.029-4.564,0.412-10.548c0-0.053,0.007-0.112,0.013-0.172
					c0.265-3.608,0.701-7.717,1.414-11.65c0.041-0.253,0.09-0.507,0.136-0.761v-0.006c0.991-5.152,2.466-9.916,4.683-12.723
					c0,0,0-0.006,0.005-0.006c0.767-0.974,1.622-1.71,2.577-2.146c3.195-1.468,8.784-2.623,14.079-2.417
					c3.855,0.142,7.547,1.008,10.041,2.995c0.124-0.903,0.23-1.81,0.318-2.7c0.265-2.488,0.437-4.895,0.79-7.027l0.006-0.03
					c0.295-1.793,0.719-3.396,1.428-4.698c2.528-4.706,6.113-6.952,9.031-8.025c1.021-0.371,2.039-0.154,2.801,0.424
					c0.088,0.06,0.177,0.136,0.26,0.213c0.714,0.673,1.103,1.681,0.891,2.777c-0.414,2.028-0.825,4.663-1.08,7.658
					c-0.011,0.1-0.023,0.201-0.029,0.302c-0.666,8.507,0.101,19.833,6.733,28.459c12.193,15.872,1.675,30.818,1.474,39.167
					c-0.064,2.305,0.867,8.06,2.265,15.212C2395.574,1650.095,2402.42,1678.365,2402.998,1679.42z"/>
				<path style="fill:#B2443B;" d="M2380.385,1548.225l1.061,0.322c0.254-3.117,2.655-9.363,3.078-11.463
					c0.214-1.098-1.905-0.699-2.68,0.081c-0.5,0.32-1.08,1.439-1.323,2.021c-0.707,1.671-1.575,3.929-1.972,5.905
					C2378.255,1546.46,2379.037,1547.821,2380.385,1548.225z"/>
			</g>
			<path style="fill:#2B478B;" d="M2432.25,1720.346h-76.09c0.241-5.324,0.53-50.198,0.838-54.438
				c0.771-10.548,5.011-20.843,5.011-20.843c17.528-3.078,29.91-13.678,29.91-13.678s9.209,1.998,13.79,14.155
				C2409.447,1655.465,2427.723,1707.541,2432.25,1720.346z"/>
			<g>
				<g>
					<path style="fill:#EFCBAB;" d="M2348.337,1658.383l1.144,0.149c3.744,0.486,7.005-0.961,7.25-3.221l15.161-140.003
						l-8.446-1.099l-21.182,139.295C2341.93,1655.711,2344.66,1657.905,2348.337,1658.383z"/>
				</g>
				<path style="fill:#739AF0;" d="M2275.736,1506.251l183.389,23.854c5.172,0.673,9.954-3.009,10.628-8.181l22.019-169.282
					c0.672-5.172-3.01-9.954-8.182-10.627l-183.389-23.854c-5.172-0.673-9.955,3.008-10.627,8.181l-22.019,169.282
					C2266.883,1500.797,2270.564,1505.579,2275.736,1506.251z"/>
				<path style="fill:#FCECDB;" d="M2310.118,1501.672l116.94,15.211c18.184,2.365,34.995-10.576,37.359-28.759l13.55-104.169
					c2.366-18.183-10.575-34.996-28.761-37.36l-116.939-15.211c-18.183-2.364-34.994,10.578-37.359,28.761l-13.551,104.168
					C2278.993,1482.495,2291.936,1499.308,2310.118,1501.672z"/>
				<path style="fill:#B2443B;" d="M2411.192,1398.131c1.015-8.562-1.049-15.813-6.19-21.745
					c-5.142-5.937-12.046-9.416-20.707-10.441c-6.427-0.767-12.506-0.088-18.236,2.027c-6.262,2.254-11.137,5.867-14.621,10.831
					c-2.111,2.955-3.35,6.015-3.721,9.175c-0.308,2.547,0.207,4.988,1.527,7.317c1.32,2.322,3.2,3.631,5.642,3.921
					c3.449,0.412,6.002-1.097,7.647-4.523c2.076-4.505,4.351-7.599,6.816-9.273c2.905-1.928,6.697-2.618,11.372-2.063
					c3.763,0.448,6.628,1.898,8.603,4.357c1.976,2.458,2.742,5.57,2.294,9.345c-0.749,6.321-3.201,10.529-7.353,12.622
					c-0.111,0.09-3.92,1.033-11.42,2.832c-4.033,1.071-6.268,3.448-6.704,7.115c-0.59,4.999,2.394,8.195,8.95,9.593
					c11.592,2.511,16.797,8.767,15.613,18.755c-0.484,4.08-1.599,7.364-3.339,9.846c-3.684,4.941-9.103,6.988-16.236,6.139
					c-5.307-0.625-9.428-2.925-12.37-6.893c-0.536-0.684-2.346-4.21-5.418-10.571c-1.922-3.844-4.21-5.926-6.857-6.237
					c-2.554-0.302-4.752,0.364-6.598,2.01c-1.851,1.64-2.925,3.738-3.225,6.285c-1.056,8.874,2.735,17.027,11.367,24.456
					c5.442,4.682,12.346,7.518,20.712,8.509c10.808,1.279,20.095-0.726,27.853-6.009c8.201-5.542,12.937-13.613,14.191-24.221
					c1.622-13.667-3.495-23.731-15.341-30.205C2404.718,1416.084,2409.972,1408.436,2411.192,1398.131z"/>
			</g>
			<g>
				<path style="fill:#FFB27D;" d="M2340.707,1561.265l27.111,11.33c2.27,1.026,4.233,0.52,5.26-1.75l1.911-4.227
					c1.027-2.27,0.01-4.966-2.259-5.992l-21.46-10.994c-2.804-1.398-6.304-0.208-7.944,1.95
					C2343.326,1551.582,2336.185,1559.45,2340.707,1561.265z"/>
				<path style="fill:#FFB27D;" d="M2334.578,1574.344l28.066,11.309c3.65,1.471,7.841-0.313,9.311-3.962l0,0
					c1.471-3.651-0.312-7.841-3.963-9.312l-28.066-11.309c-3.65-1.471-6.934-2.265-9.311,3.963l0,0
					C2327.897,1570.011,2330.929,1572.873,2334.578,1574.344z"/>
				<path style="fill:#FFB27D;" d="M2332.531,1585.995l22.644,7.964c3.149,1.27,6.233,0.676,7.503-2.475l0,0
					c1.27-3.149-0.271-6.766-3.42-8.034l-22.111-8.909c-3.149-1.27-6.267-2.681-8.034,3.42l0,0
					C2327.56,1582.162,2329.364,1584.79,2332.531,1585.995z"/>
				<path style="fill:#FFB27D;" d="M2329.82,1596.133l12.964,5.224c2.718,1.096,5.838-0.232,6.933-2.95l0,0
					c1.096-2.719-0.232-5.838-2.951-6.933l-12.963-5.224c-2.718-1.095-5.838,0.233-6.933,2.95l0,0
					C2325.775,1591.918,2327.103,1595.038,2329.82,1596.133z"/>
				<path style="fill:#B2443B;" d="M2373.846,1563.937c-1.577-0.912-3.718-2.04-5.629-2.684c-1.324-0.444-2.767,0.164-3.334,1.439
					l-1.629,3.664c-0.563,1.271-0.012,2.765,1.251,3.347c1.552,0.715,3.722,1.63,5.908,2.275c1.533,0.451,3.159-0.338,3.771-1.814
					l0.972-2.35C2375.755,1566.374,2375.196,1564.717,2373.846,1563.937z"/>
				<path style="fill:#B2443B;" d="M2371.139,1577.039c-1.599-0.837-3.762-1.865-5.678-2.422c-1.326-0.386-2.729,0.277-3.236,1.563
					l-1.459,3.689c-0.506,1.279,0.102,2.732,1.375,3.257c1.564,0.643,3.748,1.458,5.938,2.005c1.533,0.384,3.108-0.465,3.652-1.95
					l0.865-2.362C2373.127,1579.369,2372.506,1577.755,2371.139,1577.039z"/>
				<path style="fill:#B2443B;" d="M2362.84,1587.173c-1.359-0.712-3.198-1.585-4.828-2.059c-1.127-0.328-2.319,0.235-2.75,1.327
					l-1.241,3.137c-0.431,1.089,0.087,2.324,1.169,2.769c1.33,0.546,3.187,1.238,5.047,1.705c1.304,0.326,2.644-0.396,3.105-1.657
					l0.736-2.01C2364.529,1589.152,2364.001,1587.78,2362.84,1587.173z"/>
				<path style="fill:#B2443B;" d="M2349.854,1595.065c-1.18-0.616-2.773-1.374-4.188-1.784c-0.978-0.285-2.012,0.204-2.387,1.151
					l-1.075,2.721c-0.373,0.943,0.075,2.016,1.014,2.401c1.153,0.474,2.765,1.074,4.378,1.479c1.131,0.283,2.293-0.344,2.693-1.438
					l0.638-1.743C2351.319,1596.784,2350.861,1595.594,2349.854,1595.065z"/>
			</g>
		</g>
		<g>
			<g>
				<path style="fill:#EFA26F;" d="M622.518,1720.346h-38.378c-0.159-0.571-0.313-1.143-0.472-1.697
					c-1.81-6.551-3.402-11.857-4.392-14.239c-0.915-2.192-2.122-3.773-3.425-4.905c-4.122-3.602-9.221-2.741-9.221-2.741
					l-4.381-6.893l-18.254-28.725v-0.006l-0.482-0.761c0,0-0.626-5.036-0.926-11.698c-0.006-0.058-0.006-0.124-0.006-0.188
					c-0.183-4.015-0.235-8.613,0.035-13.048c0.018-0.282,0.036-0.571,0.054-0.854c0.419-5.819,1.427-11.268,3.502-14.651
					c0.006-0.006,0.006-0.013,0.012-0.018c0.719-1.173,1.562-2.095,2.558-2.701c3.491-2.134,9.935-4.233,16.055-4.569
					c3.78-0.206,7.441,0.26,10.207,1.805c0.147,0.082,0.289,0.164,0.43,0.254c0.024-1.021,0.018-2.029,0-3.03
					c-0.071-5.118-0.424-9.906,0.92-13.267c2.175-5.519,5.838-8.467,8.921-10.035c1.072-0.537,2.228-0.437,3.142,0.105
					c0.107,0.061,0.212,0.125,0.313,0.202c0.873,0.647,1.439,1.709,1.345,2.947c-0.188,2.376-0.306,5.454-0.183,8.926
					c0.383,9.476,2.707,21.881,11.155,30.53c15.53,15.924,5.879,33.79,6.745,43.028c0.249,2.671,2.176,9.345,4.829,17.534
					C615.483,1700.506,619.192,1711.132,622.518,1720.346z"/>
				<path style="fill:#FFC197;" d="M588.677,1600.34l1.214,0.218c-0.129-3.472,1.705-10.681,1.895-13.053
					c0.094-1.238-2.192-0.522-2.946,0.439c-0.51,0.421-1.002,1.731-1.196,2.403c-0.562,1.938-1.223,4.542-1.404,6.774
					C586.096,1598.673,587.137,1600.072,588.677,1600.34z"/>
			</g>
			<path style="fill:#2B478B;" d="M627.847,1720.346h-44.744c0.153-0.564,0.342-1.131,0.565-1.697
				c4.558-11.722,21.568-22.683,28.949-26.998c2.129-1.243,3.456-1.934,3.456-1.934S620.896,1702.141,627.847,1720.346z"/>
			<g>
				<g>
					<path style="fill:#EFCBAB;" d="M568.035,1718.832l1.152,0.012c3.774,0.045,6.843-1.778,6.82-4.051l-1.414-140.813l-8.518-0.098
						l-4.645,140.819C561.356,1716.932,564.327,1718.789,568.035,1718.832z"/>
				</g>
				<path style="fill:#739AF0;" d="M478.04,1576.299l184.921,2.111c5.216,0.059,9.532-4.159,9.591-9.375l1.95-170.696
					c0.06-5.216-4.16-9.532-9.375-9.591l-184.922-2.112c-5.215-0.059-9.531,4.159-9.59,9.375l-1.95,170.696
					C468.606,1571.922,472.824,1576.239,478.04,1576.299z"/>
				<path style="fill:#FCECDB;" d="M511.644,1567.705l117.917,1.348c18.336,0.209,33.509-14.621,33.717-32.956l1.199-105.039
					c0.209-18.335-14.62-33.508-32.956-33.717l-117.917-1.347c-18.335-0.209-33.507,14.621-33.717,32.955l-1.199,105.039
					C478.479,1552.324,493.309,1567.496,511.644,1567.705z"/>
				<path style="fill:#B2443B;" d="M598.332,1425.035h-53.14c-7.394,0-11.09,2.955-11.09,8.856c0,5.908,3.744,8.861,11.244,8.861
					h42.509l-0.761,1.545l-36.088,78.445c-1.516,3.072-2.269,5.891-2.269,8.449s1.072,4.658,3.229,6.29
					c2.159,1.64,4.517,2.46,7.088,2.46c3.896,0,7.181-2.978,9.852-8.934l40.205-89.488c1.438-3.184,2.157-5.701,2.157-7.547
					C611.268,1428.019,606.958,1425.035,598.332,1425.035z"/>
			</g>
			<g>
				<path style="fill:#FFB27D;" d="M546.64,1620.063l31.75,7.639c2.671,0.724,4.735-0.18,5.461-2.851l1.349-4.974
					c0.726-2.673-0.866-5.451-3.538-6.177l-25.487-8.27c-3.323-1.037-6.953,0.888-8.371,3.543
					C547.803,1608.974,541.357,1618.871,546.64,1620.063z"/>
				<path style="fill:#FFB27D;" d="M541.54,1635.155l32.453,8.811c4.221,1.146,8.611-1.369,9.757-5.589l0,0
					c1.146-4.222-1.371-8.612-5.59-9.758l-32.454-8.811c-4.221-1.146-7.947-1.594-9.758,5.59l0,0
					C533.601,1631.247,537.319,1634.011,541.54,1635.155z"/>
				<path style="fill:#FFB27D;" d="M540.805,1648.282l26.029,5.828c3.643,0.988,6.969-0.069,7.957-3.712l0,0
					c0.989-3.643-1.183-7.431-4.824-8.42l-25.566-6.941c-3.643-0.989-7.267-2.138-8.421,4.825l0,0
					C534.817,1644.702,537.152,1647.365,540.805,1648.282z"/>
				<path style="fill:#FFB27D;" d="M539.139,1659.824l14.988,4.07c3.144,0.854,6.413-1.02,7.266-4.163l0,0
					c0.852-3.143-1.019-6.412-4.163-7.265l-14.989-4.069c-3.142-0.854-6.412,1.02-7.265,4.162l0,0
					C534.122,1655.703,535.995,1658.972,539.139,1659.824z"/>
				<path style="fill:#FFC197;" d="M583.972,1617.137c-1.893-0.722-4.44-1.583-6.651-1.95c-1.53-0.255-3.006,0.669-3.402,2.169
					l-1.139,4.307c-0.395,1.495,0.474,3.036,1.963,3.451c1.83,0.51,4.372,1.131,6.885,1.452c1.76,0.226,3.406-0.93,3.816-2.657
					l0.653-2.75C586.497,1619.472,585.592,1617.754,583.972,1617.137z"/>
				<path style="fill:#FFC197;" d="M582.742,1633.35c-1.874-0.715-4.395-1.566-6.584-1.931c-1.513-0.251-2.974,0.663-3.366,2.146
					l-1.127,4.264c-0.392,1.479,0.469,3.004,1.943,3.414c1.81,0.505,4.326,1.119,6.813,1.438c1.744,0.222,3.371-0.92,3.777-2.629
					l0.645-2.722C585.241,1635.661,584.344,1633.96,582.742,1633.35z"/>
				<path style="fill:#FFC197;" d="M574.405,1645.618c-1.592-0.607-3.735-1.331-5.596-1.641c-1.287-0.215-2.527,0.563-2.862,1.825
					l-0.958,3.624c-0.333,1.257,0.399,2.553,1.652,2.902c1.538,0.428,3.678,0.95,5.792,1.222c1.482,0.189,2.865-0.782,3.211-2.235
					l0.549-2.313C576.529,1647.584,575.769,1646.138,574.405,1645.618z"/>
				<path style="fill:#FFC197;" d="M561.107,1656.027c-1.382-0.526-3.241-1.154-4.855-1.423c-1.116-0.187-2.193,0.488-2.482,1.583
					l-0.832,3.143c-0.289,1.091,0.347,2.215,1.434,2.519c1.335,0.372,3.19,0.825,5.024,1.059c1.285,0.166,2.486-0.677,2.785-1.938
					l0.476-2.007C562.95,1657.732,562.289,1656.478,561.107,1656.027z"/>
			</g>
		</g>
		<g>
			<g>
				<path style="fill:#EFA26F;" d="M2677.767,1582.36l-23.954,22.746h-4.658c-3.014-7.027-10.49-24.355-16.132-36.489
					c-2.542-5.484-4.716-9.906-5.931-11.846c-0.691-1.097-1.439-1.975-2.218-2.676l-0.005-0.008
					c-4.511-4.062-9.983-2.181-9.983-2.181l-4.61-5.142l-20.43-22.781l-0.535-0.601c0,0-1.286-4.323-2.524-10.124
					c-0.013-0.054-0.023-0.113-0.035-0.165c-0.743-3.496-1.463-7.512-1.869-11.438c-0.029-0.254-0.053-0.508-0.076-0.762
					c-0.483-5.158-0.396-10.087,0.926-13.359c0.006-0.005,0.006-0.012,0.006-0.018c0.464-1.132,1.071-2.063,1.856-2.741
					c2.783-2.411,8.22-5.229,13.608-6.392c3.39-0.73,6.756-0.808,9.428,0.295c-0.131-0.896-0.282-1.78-0.443-2.654
					c-0.795-4.38-1.774-8.437-1.168-11.555v-0.006c0.008-0.07,0.019-0.137,0.037-0.206c1.103-5.16,3.88-8.278,6.354-10.101
					c0.862-0.631,1.888-0.708,2.766-0.366h0.006c0.107,0.037,0.207,0.077,0.301,0.131c0.861,0.442,1.516,1.291,1.61,2.388
					c0.177,2.058,0.507,4.693,1.103,7.629c0.012,0.077,0.023,0.154,0.041,0.225c1.717,8.254,5.566,18.784,14.238,25.141
					c15.943,11.69,10.089,28.767,12.193,36.743c0.607,2.305,3.271,7.877,6.791,14.663
					C2663.121,1557.433,2676.941,1581.535,2677.767,1582.36z"/>
				<path style="fill:#2B478B;" d="M2620.143,1464.148l1.096,0.015c-0.619-3.026-0.064-9.613-0.242-11.721
					c-0.099-1.101-1.999-0.139-2.52,0.815c-0.386,0.441-0.627,1.663-0.697,2.281c-0.211,1.779-0.41,4.16-0.243,6.144
					C2617.637,1463.063,2618.753,1464.139,2620.143,1464.148z"/>
			</g>
			<path style="fill:#D86713;" d="M2763.282,1720.346H2667c-4.299-19.025-34.319-148.38-34.319-148.38
				c-0.019-1.097,0.1-2.217,0.342-3.349c2.288-10.95,15.601-23.042,21.437-27.906c1.688-1.397,2.748-2.199,2.748-2.199
				S2743.719,1686.262,2763.282,1720.346z"/>
			<g>
				<g>
					<path style="fill:#EFCBAB;" d="M2622.01,1583.934l1.139-0.176c3.731-0.576,6.459-2.88,6.063-5.117l-24.522-138.669
						l-8.417,1.304l18.545,139.668C2615.109,1583.156,2618.346,1584.501,2622.01,1583.934z"/>
				</g>
				<path style="fill:#739AF0;" d="M2509.828,1458.117l182.757-28.288c5.154-0.797,8.719-5.668,7.921-10.823l-26.111-168.697
					c-0.797-5.155-5.667-8.72-10.822-7.922l-182.757,28.286c-5.154,0.799-8.719,5.669-7.921,10.824l26.111,168.697
					C2499.803,1455.35,2504.674,1458.914,2509.828,1458.117z"/>
				<path style="fill:#FCECDB;" d="M2541.564,1444.121l116.537-18.037c18.12-2.805,30.652-19.926,27.848-38.045l-16.067-103.811
					c-2.806-18.121-19.926-30.651-38.046-27.847l-116.538,18.037c-18.12,2.805-30.65,19.926-27.846,38.046l16.067,103.811
					C2506.323,1434.395,2523.444,1446.926,2541.564,1444.121z"/>
				<path style="fill:#B2443B;" d="M2624.579,1325.497c-1.302-11.839-5.364-21.049-12.188-27.634
					c-7.388-7.035-16.897-9.912-28.536-8.627c-11.025,1.215-19.722,5.92-26.101,14.109c-6.386,8.195-8.962,17.8-7.748,28.825
					c1.056,9.598,4.61,17.47,10.659,23.62c6.628,6.71,14.588,9.551,23.873,8.524c5.719-0.631,10.466-2.081,14.246-4.362l0.152-0.012
					c-3.943,8.283-9.569,16.756-16.88,25.411c-3.007,3.638-4.965,6.079-5.86,7.312c-1.416,2.115-2.022,4.098-1.822,5.931
					c0.271,2.453,1.32,4.505,3.16,6.161c1.834,1.657,3.975,2.354,6.426,2.082c7.961-0.879,18.313-12.865,31.057-35.966
					c3.961-7.151,6.784-14.333,8.471-21.544S2625.54,1334.176,2624.579,1325.497z M2601.072,1340.644
					c-2.836,3.826-6.957,6.037-12.363,6.634c-5.514,0.606-9.918-0.874-13.195-4.435c-2.937-3.189-4.718-7.641-5.348-13.36
					c-0.607-5.512,0.399-10.4,3.029-14.669c2.631-4.263,6.646-6.698,12.059-7.293c5.612-0.619,10.194,1.096,13.736,5.147
					c2.967,3.495,4.783,8.207,5.431,14.125C2605.021,1332.2,2603.901,1336.823,2601.072,1340.644z"/>
			</g>
			<g>
				<path style="fill:#FFB27D;" d="M2586.164,1487.578l28.951,2.062c2.448,0.247,4.127-0.848,4.373-3.296l0.458-4.558
					c0.245-2.448-1.557-4.653-4.005-4.898l-23.556-3.531c-3.063-0.424-5.965,1.794-6.821,4.329
					C2585.564,1477.686,2581.357,1487.305,2586.164,1487.578z"/>
				<path style="fill:#FFB27D;" d="M2583.896,1501.557l29.74,2.986c3.867,0.389,7.351-2.457,7.738-6.324l0,0
					c0.389-3.869-2.458-7.352-6.326-7.739l-29.741-2.988c-3.867-0.389-7.201-0.236-7.738,6.325l0,0
					C2576.364,1499.289,2580.027,1501.169,2583.896,1501.557z"/>
				<path style="fill:#FFB27D;" d="M2585.167,1513.172l23.674,1.311c3.337,0.336,6.1-1.078,6.435-4.415l0,0
					c0.334-3.338-2.122-6.344-5.46-6.68l-23.429-2.354c-3.339-0.335-6.684-0.813-6.679,5.46l0,0
					C2579.395,1510.908,2581.83,1512.902,2585.167,1513.172z"/>
				<path style="fill:#FFB27D;" d="M2585.391,1523.537l13.736,1.379c2.88,0.289,5.474-1.83,5.763-4.71l0,0
					c0.289-2.88-1.831-5.474-4.709-5.763l-13.738-1.38c-2.88-0.289-5.473,1.831-5.762,4.711l0,0
					C2580.391,1520.654,2582.51,1523.248,2585.391,1523.537z"/>
				<path style="fill:#2B478B;" d="M2618.47,1479.563c-1.766-0.356-4.124-0.74-6.117-0.739c-1.378,0-2.537,1.026-2.667,2.398
					l-0.369,3.943c-0.129,1.368,0.858,2.592,2.225,2.738c1.679,0.181,3.999,0.353,6.249,0.268c1.578-0.059,2.851-1.312,2.958-2.887
					l0.172-2.506C2621.024,1481.242,2619.979,1479.867,2618.47,1479.563z"/>
				<path style="fill:#2B478B;" d="M2619.758,1493.958c-1.748-0.354-4.083-0.731-6.055-0.731c-1.363,0-2.511,1.016-2.638,2.374
					l-0.366,3.902c-0.127,1.354,0.85,2.565,2.202,2.71c1.66,0.178,3.956,0.35,6.183,0.266c1.561-0.06,2.821-1.299,2.928-2.856
					l0.17-2.481C2622.285,1495.62,2621.251,1494.26,2619.758,1493.958z"/>
				<path style="fill:#2B478B;" d="M2614.239,1505.932c-1.485-0.3-3.47-0.622-5.146-0.621c-1.159,0-2.135,0.862-2.243,2.018
					l-0.311,3.317c-0.108,1.151,0.723,2.181,1.872,2.304c1.411,0.151,3.363,0.297,5.257,0.226c1.326-0.051,2.398-1.104,2.488-2.43
					l0.145-2.107C2616.389,1507.346,2615.51,1506.188,2614.239,1505.932z"/>
				<path style="fill:#2B478B;" d="M2604.099,1517c-1.288-0.26-3.01-0.539-4.464-0.539c-1.007,0-1.852,0.748-1.945,1.75
					l-0.271,2.878c-0.094,0.998,0.627,1.891,1.624,1.998c1.225,0.132,2.918,0.258,4.56,0.195c1.15-0.043,2.08-0.957,2.157-2.106
					l0.126-1.829C2605.963,1518.226,2605.2,1517.223,2604.099,1517z"/>
			</g>
		</g>
		<g>
			<g>
				<path style="fill:#EFA26F;" d="M862.141,1425.632l-8.609,42.197c0,0-8.768,1.761-9.074,11.639
					c-0.308,9.89,6.539,63.236,6.539,63.236l-41.156-9.622c0.468-1.79-0.297-62.789-2.799-71.72
					c-2.482-8.93-17.856-22.167-9.04-42.563c4.628-10.672,2.712-22.579-0.141-31.458c-0.111-0.347-0.218-0.686-0.33-1.012
					c-1.115-3.285-2.32-6.118-3.349-8.268c-0.077-0.155-0.136-0.316-0.176-0.477c-0.295-0.978-0.118-1.961,0.388-2.752
					c0.631-1.003,1.783-1.649,3.109-1.523c3.436,0.369,7.905,1.81,11.901,6.188c2.926,3.184,4.331,9.126,6.664,14.885
					c5.096-6.693,19.182-8.405,25.813-7.171C853.214,1389.304,862.141,1425.632,862.141,1425.632z"/>
				<path style="fill:#FFC197;" d="M800.581,1384.024c0.441,1.111-0.302,2.38-1.75,2.937l-0.969,0.38
					c-0.111-0.347-0.218-0.686-0.33-1.012c-1.115-3.285-2.32-6.118-3.349-8.268c-0.077-0.155-0.136-0.316-0.176-0.477
					c0.697-0.144,1.75-0.017,2.291,0.301c0.577,0.195,1.31,1.042,1.62,1.489C798.832,1380.668,799.979,1382.431,800.581,1384.024z"
					/>
			</g>
			<path style="fill:#F99746;" d="M804.877,1478.874c0,0,34.645,4.029,42.787,18.514c0,0,48.967,142.534,36.739,151.586
				c-12.228,9.052-70.818,30.076-75.643,12.701C803.933,1644.301,804.877,1478.874,804.877,1478.874z"/>
			<g>
				<g>
					<path style="fill:#EFCBAB;" d="M857.492,1468.895l-1.039,0.498c-3.406,1.632-6.956,1.272-7.893-0.797l-58.114-128.271
						l7.68-3.68l63.612,125.718C862.745,1464.355,860.836,1467.293,857.492,1468.895z"/>
				</g>
				<path style="fill:#739AF0;" d="M878.967,1301.7l-166.773,79.917c-4.705,2.254-10.397,0.249-12.651-4.453l-73.77-153.945
					c-2.253-4.705-0.249-10.397,4.456-12.652l166.773-79.916c4.705-2.254,10.397-0.249,12.651,4.454l73.768,153.946
					C885.675,1293.755,883.671,1299.447,878.967,1301.7z"/>
				<path style="fill:#FCECDB;" d="M844.874,1308.084l-106.346,50.961c-16.535,7.923-36.548,0.876-44.472-15.658l-45.394-94.732
					c-7.923-16.535-0.877-36.548,15.658-44.47l106.347-50.961c16.534-7.924,36.546-0.878,44.47,15.658l45.394,94.731
					C868.456,1280.148,861.41,1300.161,844.874,1308.084z"/>
				<path style="fill:#B2443B;" d="M792.871,1257.804c-2.027-4.155-4.788-5.722-8.284-4.704c-0.969-0.1-3.296,0.747-6.987,2.547
					l-22.455-46.117c-2.73-5.609-5.905-9.239-9.521-10.899c-3.532-1.632-7.488-1.374-11.863,0.754
					c-3.393,1.647-5.82,3.845-7.285,6.589c-0.056,0.095-0.108,0.193-0.156,0.29c-1.266,2.328-2.104,5.649-2.513,9.966l-5.995,58.765
					c-0.713,6.745-0.015,12.282,2.098,16.627c2.83,5.811,8.171,6.811,16.017,2.989l32.268-15.711l7.688,15.789
					c3.148,6.462,7.349,8.414,12.616,5.851c5.903-2.875,7.31-7.501,4.206-13.873l-7.752-15.924c3.599-1.756,6.001-3.383,7.214-4.882
					C794.167,1263.627,794.402,1260.942,792.871,1257.804z M734.029,1276.862c3.642-37.231,5.556-56.009,5.745-56.33l21.069,43.271
					L734.029,1276.862z"/>
			</g>
			<g>
				<path style="fill:#FFB27D;" d="M845.104,1388.936l-0.25,0.176l-26.913,18.448c-1.716,1.255-3.444,1.479-4.894,0.499
					c-0.434-0.296-0.843-0.691-1.215-1.211l-3.034-4.162c-0.365-0.504-0.619-1.045-0.774-1.608c-0.544-1.965,0.145-4.157,1.877-5.42
					l20.84-16.798c2.727-2.156,6.804-1.65,9.079,0.326C839.821,1379.186,849.001,1385.858,845.104,1388.936z"/>
				<path style="fill:#FFB27D;" d="M858.502,1392.887c1.186,2.742,0.091,5.158-1.815,7.068c-0.517,0.519-1.09,0.994-1.69,1.431
					l-26.28,19.16l-0.871,0.634c-2.016,1.474-4.519,1.846-6.768,1.23c-1.685-0.455-3.227-1.465-4.336-2.979
					c-0.346-0.481-0.634-0.987-0.865-1.52c-0.381-0.881-0.593-1.805-0.626-2.747c-0.141-2.583,0.994-5.186,3.233-6.825
					l26.368-19.229l0.25-0.176l0.532-0.389c3.533-2.574,6.851-4.324,11.101,1.739C857.567,1391.18,858.14,1392.047,858.502,1392.887
					z"/>
				<path style="fill:#FFB27D;" d="M862.845,1405.549c1.381,3.19,0.23,5.799-2.224,7.629c-0.081,0.065-0.169,0.134-0.262,0.193
					l-4.901,3.244l-17.32,11.478c-1.822,1.331-3.81,1.935-5.574,1.552c-1.186-0.256-2.278-0.958-3.171-2.179
					c-0.309-0.418-0.557-0.854-0.754-1.312c-0.464-1.071-0.635-2.222-0.52-3.346c0.066-0.779,0.267-1.547,0.599-2.263
					c0.476-1.023,1.207-1.952,2.176-2.657l21.388-15.595c1.455-1.063,2.902-2.163,4.405-2.339c0,0-0.004-0.009,0.008-0.004
					c1.621-0.197,3.312,0.679,5.164,3.844C862.268,1404.396,862.602,1404.983,862.845,1405.549z"/>
				<path style="fill:#FFB27D;" d="M867.972,1416.422c1.075,2.484,0.329,5.48-1.944,7.134l-12.54,9.144
					c-1.53,1.115-3.427,1.384-5.134,0.879c-1.223-0.34-2.332-1.082-3.132-2.178c-0.264-0.358-0.477-0.739-0.646-1.13
					c-0.327-0.757-0.482-1.547-0.482-2.347c0-1.824,0.842-3.64,2.426-4.789l8.939-6.52l0.038-0.026l3.564-2.596
					c0.485-0.358,1.011-0.627,1.561-0.815c0,0,0,0,0.008-0.002c2.381-0.813,5.14-0.023,6.696,2.114
					C867.59,1415.649,867.804,1416.03,867.972,1416.422z"/>
				<path style="fill:#FFC197;" d="M820.423,1403.852c-1.526,1.125-3.677,2.607-5.9,3.807c-0.474,0.253-0.979,0.383-1.474,0.4
					c-0.434-0.296-0.843-0.691-1.215-1.211l-3.034-4.162c-0.365-0.504-0.619-1.045-0.774-1.608c0.183-0.514,0.505-0.998,0.941-1.384
					c1.506-1.352,3.58-3.059,5.516-4.191c1.337-0.785,3.042-0.447,3.949,0.807l2.594,3.623
					C821.93,1401.179,821.67,1402.928,820.423,1403.852z"/>
				<path style="fill:#FFC197;" d="M827.23,1418.497c-1.509,1.116-3.636,2.588-5.847,3.772c-0.104,0.055-0.204,0.098-0.304,0.141
					c-1.685-0.455-3.227-1.465-4.336-2.979c-0.346-0.481-0.634-0.987-0.865-1.52c-0.381-0.881-0.593-1.805-0.626-2.747
					c0.17-0.291,0.384-0.552,0.64-0.78c1.494-1.337,3.545-3.023,5.458-4.146c1.32-0.778,3.014-0.444,3.909,0.805l2.573,3.573
					C828.723,1415.858,828.465,1417.588,827.23,1418.497z"/>
				<path style="fill:#FFC197;" d="M837.688,1426.364c-1.286,0.95-3.095,2.197-4.968,3.204c-0.055,0.034-0.104,0.055-0.155,0.076
					c-1.186-0.256-2.278-0.958-3.171-2.179c-0.309-0.418-0.557-0.854-0.754-1.312c-0.464-1.071-0.635-2.222-0.52-3.346
					c1.267-1.13,2.978-2.532,4.567-3.466c1.124-0.663,2.56-0.377,3.324,0.684l2.184,3.041
					C838.956,1424.119,838.731,1425.587,837.688,1426.364z"/>
				<path style="fill:#FFC197;" d="M852.531,1430.875c-1.083,0.804-2.593,1.85-4.176,2.703c-1.223-0.34-2.332-1.082-3.132-2.178
					c-0.264-0.358-0.477-0.739-0.646-1.13c-0.327-0.757-0.482-1.547-0.482-2.347c0.018-0.027,0.043-0.058,0.073-0.08
					c1.106-0.981,2.614-2.236,4.022-3.063c0.977-0.57,2.23-0.322,2.892,0.594l1.89,2.636
					C853.632,1428.928,853.436,1430.206,852.531,1430.875z"/>
			</g>
			<path style="fill:#FFBF8F;" d="M808.35,1472.231c0,0-8.578,10.61-9.839,24.802c0,0,20.175,6.73,29.249,6.421l7.741-16.128
				l5.256,15.769c0,0,10.5-0.432,14.236-3.199c0,0-5.02-17.095-10.315-22.599C844.677,1477.297,818.738,1481.39,808.35,1472.231z"/>
			<path style="fill:#F99746;" d="M822.007,1498.133c-0.438-1.013,0.027-2.188,1.041-2.626c1.012-0.438,2.188,0.027,2.626,1.04
				c0.437,1.013-0.028,2.188-1.04,2.627C823.621,1499.611,822.445,1499.146,822.007,1498.133z"/>
			<path style="fill:#F99746;" d="M917.125,1719.733l-90.743,0.612c-9.597-30.118-17.624-58.672-17.624-58.672l77.217-26.617
				c-0.027,0.738,0.06,1.68,0.251,2.806c-0.003,0.007,0,0.018,0.004,0.029C887.876,1647.717,908.071,1698.117,917.125,1719.733z"/>
		</g>
		<path style="fill:#2E3552;" d="M2938.268,1727.733H61.732c-3.152,0-5.732-2.58-5.732-5.732V1722c0-3.152,2.58-5.731,5.732-5.731
			h2876.536c3.152,0,5.732,2.579,5.732,5.732l0,0C2944,1725.153,2941.42,1727.733,2938.268,1727.733z"/>
	</g>
</g>
</svg>
